<svg width="108.5px" height="108.5px" viewBox="-7 -30 120 140" xmlns="http://www.w3.org/2000/svg">
  <g id="Group_23" data-name="Group 23" transform="translate(-278.6 -471.2)">
    <path id="Path_14" data-name="Path 14" d="M371.9,473.2H293.8a13.187,13.187,0,0,0-13.2,13.2v47.3a13.187,13.187,0,0,0,13.2,13.2h78.1a13.187,13.187,0,0,0,13.2-13.2V486.4A13.317,13.317,0,0,0,371.9,473.2Z" fill="none" stroke="#000" stroke-linecap="round" stroke-miterlimit="10" stroke-width="5"/>
    <path id="Path_15" data-name="Path 15" d="M282.1,488.2l51.1,21.9,25.2-10.8" fill="none" stroke="#000" stroke-linecap="round" stroke-miterlimit="10" stroke-width="5"/>
    <path id="Path_16" data-name="Path 16" d="M374,490.7a4.331,4.331,0,0,1-5,5,4.241,4.241,0,0,1-3.6-3.6,4.331,4.331,0,0,1,5-5A4.241,4.241,0,0,1,374,490.7Z" fill="#000" stroke="#000" stroke-miterlimit="10" stroke-width="1"/>
    <line id="Line_1" data-name="Line 1" x1="19.5" y2="19.8" transform="translate(287.4 524)" fill="none" stroke="#000" stroke-linecap="round" stroke-miterlimit="10" stroke-width="5"/>
    <line id="Line_2" data-name="Line 2" x2="19.5" y2="19.8" transform="translate(358.7 524)" fill="none" stroke="#000" stroke-linecap="round" stroke-miterlimit="10" stroke-width="5"/>
  </g>
</svg>
