<svg width="92.071px" height="92.071px" viewBox="0 -4.99 92.071 92.071" xmlns="http://www.w3.org/2000/svg">
  <g id="Group_21" data-name="Group 21" transform="translate(-285.564 -881.7)">
    <path id="Path_63" data-name="Path 63" d="M361.5,925.2v25.9c0,5.7-3.4,10.2-7.5,10.2H306.9c-4.1,0-7.5-4.6-7.5-10.2V925.2" fill="none" stroke="#000" stroke-linecap="round" stroke-miterlimit="10" stroke-width="5"/>
    <path id="Path_64" data-name="Path 64" d="M289.1,921.7l33.1-33.1s3.2-4.4,8.4-4.4,9.1,4.3,9.1,4.3l34.4,34.4" fill="none" stroke="#000" stroke-linecap="round" stroke-miterlimit="10" stroke-width="5"/>
    <path id="Path_65" data-name="Path 65" d="M335.6,950.1H325.3a3.159,3.159,0,0,1-3.2-3.2v-14a3.159,3.159,0,0,1,3.2-3.2h10.3a3.159,3.159,0,0,1,3.2,3.2v14A3.159,3.159,0,0,1,335.6,950.1Z" fill="none" stroke="#000" stroke-linecap="round" stroke-miterlimit="10" stroke-width="5"/>
  </g>
</svg>
