<?xml version="1.0" encoding="iso-8859-1"?>
<svg version="1.1" xmlns="http://www.w3.org/2000/svg" xmlns:xlink="http://www.w3.org/1999/xlink" x="0px" y="0px"
	 viewBox="0 0 512.009 512.009" xml:space="preserve">
<g>
	<g>
		<g>
			<path d="M451.613,362.617c-7.379-5.713-14.923-26.642-19.539-56.314c-4.081-26.232-5.443-53.051-5.399-71.496l0-64.14
				C426.676,76.41,350.266,0,256.009,0S85.342,76.41,85.342,170.667v64c0.044,18.585-1.318,45.404-5.399,71.636
				c-4.616,29.672-12.16,50.601-19.501,56.285c-16.458,12.801-11.972,39.772,9.627,44.618c26.611,5.631,53.421,10.035,80.342,13.221
				c7.329,51.764,51.814,91.583,105.6,91.583c53.783,0,98.265-39.814,105.598-91.572c26.847-3.177,53.571-7.566,80.085-13.175
				C463.547,402.359,468.034,375.388,451.613,362.617z M256.011,469.342c-28.645,0-52.895-18.825-61.059-44.775
				c40.669,2.771,81.475,2.773,122.116,0.008C308.901,450.521,284.653,469.342,256.011,469.342z M341.321,379.748
				c-0.816-0.014-1.64,0.014-2.472,0.095c-55.093,5.37-110.581,5.37-165.674,0c-0.806-0.078-1.604-0.108-2.394-0.097
				c-21.625-2.165-43.183-5.152-64.62-8.968c7.292-15.079,12.307-34.543,15.943-57.916c4.492-28.878,5.955-57.67,5.906-78.156
				"/>
			
		</g>
	</g>
</g>
</svg>
