<svg width="80.3px" height="80.3px" viewBox="0 -2.2 80.3 80.3" xmlns="http://www.w3.org/2000/svg">
  <g id="Group_15" data-name="Group 15" transform="translate(-838.4 -889.1)">
    <path id="Path_61" data-name="Path 61" d="M904.7,963H852.4a12.035,12.035,0,0,1-12-12V903.2a12.035,12.035,0,0,1,12-12h52.3a12.035,12.035,0,0,1,12,12V951A12.035,12.035,0,0,1,904.7,963Z" fill="none" stroke="#2b4ea2" stroke-linecap="round" stroke-miterlimit="10" stroke-width="4"/>
    <line id="Line_30" data-name="Line 30" y2="26.1" transform="translate(878.5 891.1)" fill="none" stroke="#2b4ea2" stroke-linecap="round" stroke-miterlimit="10" stroke-width="4"/>
    <line id="Line_31" data-name="Line 31" x2="11.3" transform="translate(872.9 898.2)" fill="none" stroke="#2b4ea2" stroke-linecap="round" stroke-miterlimit="10" stroke-width="4"/>
    <line id="Line_32" data-name="Line 32" x2="11.3" transform="translate(872.9 907.4)" fill="none" stroke="#2b4ea2" stroke-linecap="round" stroke-miterlimit="10" stroke-width="4"/>
    <path id="Path_62" data-name="Path 62" d="M878.8,934h-.6a3.8,3.8,0,0,1-3.8-3.8V921a3.8,3.8,0,0,1,3.8-3.8h.6a3.8,3.8,0,0,1,3.8,3.8v9.3A3.778,3.778,0,0,1,878.8,934Z" fill="none" stroke="#2b4ea2" stroke-linecap="round" stroke-miterlimit="10" stroke-width="4"/>
  </g>
</svg>
