<svg width="91.6px" height="91.6px" viewBox="0 -1.1 91.6 91.6" xmlns="http://www.w3.org/2000/svg">
  <g id="Group_12" data-name="Group 12" transform="translate(-1021.4 -458.6)">
    <path id="Path_25" data-name="Path 25" d="M1104.6,501.3h-21.8a15.6,15.6,0,1,1-31.2,0h-21.8a6.554,6.554,0,0,0-6.4,6.6v31.5a6.554,6.554,0,0,0,6.4,6.6h74.8a6.554,6.554,0,0,0,6.4-6.6V507.9A6.554,6.554,0,0,0,1104.6,501.3Z" fill="none" stroke="#2b4ea2" stroke-linecap="round" stroke-linejoin="round" stroke-miterlimit="10" stroke-width="4"/>
    <path id="Path_26" data-name="Path 26" d="M1100.1,500.9V478.8c0-11.1,1.8-17.8-7.7-18.2H1043c-9.9,0-8.8,6.6-8.8,16.6v24.2" fill="none" stroke="#2b4ea2" stroke-linecap="round" stroke-miterlimit="10" stroke-width="4"/>
    <path id="Path_27" data-name="Path 27" d="M1049.2,477h-.4a1.11,1.11,0,0,1-1.1-1.1v-.4a1.11,1.11,0,0,1,1.1-1.1h.4a1.11,1.11,0,0,1,1.1,1.1v.4A1.11,1.11,0,0,1,1049.2,477Z" fill="#2b4ea2" stroke="#2b4ea2" stroke-miterlimit="10" stroke-width="2"/>
    <path id="Path_28" data-name="Path 28" d="M1055,486.7h-.4a1.11,1.11,0,0,1-1.1-1.1v-.4a1.11,1.11,0,0,1,1.1-1.1h.4a1.11,1.11,0,0,1,1.1,1.1v.4A1,1,0,0,1,1055,486.7Z" fill="#2b4ea2" stroke="#2b4ea2" stroke-miterlimit="10" stroke-width="2"/>
    <line id="Line_6" data-name="Line 6" x2="9.7" y2="26.5" transform="translate(1100.3 477.4)" fill="none" stroke="#2b4ea2" stroke-linecap="round" stroke-miterlimit="10" stroke-width="4"/>
    <line id="Line_7" data-name="Line 7" y1="25.8" x2="9.6" transform="translate(1024.3 478.4)" fill="none" stroke="#2b4ea2" stroke-linecap="round" stroke-miterlimit="10" stroke-width="4"/>
    <line id="Line_8" data-name="Line 8" x2="17.5" transform="translate(1057.2 475.7)" fill="none" stroke="#2b4ea2" stroke-linecap="round" stroke-miterlimit="10" stroke-width="4"/>
    <line id="Line_9" data-name="Line 9" x2="17.5" transform="translate(1062.6 485.4)" fill="none" stroke="#2b4ea2" stroke-linecap="round" stroke-miterlimit="10" stroke-width="4"/>
  </g>
</svg>
