<svg width="93.622px" height="93.622px" viewBox="0 -3.03 93.622 93.622" xmlns="http://www.w3.org/2000/svg">
  <g id="Group_8" data-name="Group 8" transform="translate(-1222.248 -664)">
    <path id="Path_43" data-name="Path 43" d="M1255.5,731.8a15.685,15.685,0,1,1-13.5-13.5A15.705,15.705,0,0,1,1255.5,731.8Z" fill="none" stroke="#2b4ea2" stroke-miterlimit="10" stroke-width="4"/>
    <path id="Path_44" data-name="Path 44" d="M1292.4,687.1a12.38,12.38,0,0,1-13.9,13.9,12.517,12.517,0,0,1-10.7-10.7,12.4,12.4,0,1,1,24.6-3.2Z" fill="none" stroke="#2b4ea2" stroke-linecap="round" stroke-miterlimit="10" stroke-width="4"/>
    <path id="Path_45" data-name="Path 45" d="M1313.7,732a11.163,11.163,0,1,1-9.1-9.1A10.93,10.93,0,0,1,1313.7,732Z" fill="none" stroke="#2b4ea2" stroke-linecap="round" stroke-miterlimit="10" stroke-width="4"/>
    <line id="Line_20" data-name="Line 20" y1="26.6" x2="17.9" transform="translate(1250.6 694.5)" fill="none" stroke="#2b4ea2" stroke-linecap="round" stroke-miterlimit="10" stroke-width="4"/>
    <line id="Line_21" data-name="Line 21" x1="10.3" y1="23.5" transform="translate(1287.4 699.2)" fill="none" stroke="#2b4ea2" stroke-linecap="round" stroke-miterlimit="10" stroke-width="4"/>
    <path id="Path_46" data-name="Path 46" d="M1254.8,686.5s-3.3-20.5,16.7-20.5" fill="none" stroke="#2b4ea2" stroke-linecap="round" stroke-miterlimit="10" stroke-width="4"/>
  </g>
</svg>
