<svg width="93.5px" height="93.5px" viewBox="-0.35 0 93.5 93.5" xmlns="http://www.w3.org/2000/svg">
  <g id="Group_3" data-name="Group 3" transform="translate(-639.9 -244.9)">
    <path id="Path_12" data-name="Path 12" d="M717.5,263H655.1a13.252,13.252,0,0,0-13.2,13.2v47a13.252,13.252,0,0,0,13.2,13.2h62.4a13.252,13.252,0,0,0,13.2-13.2v-47A13.252,13.252,0,0,0,717.5,263Z" fill="none" stroke="#2b4ea2" stroke-linecap="round" stroke-miterlimit="10" stroke-width="4"/>
    <path id="Path_13" data-name="Path 13" d="M642,291V268.1c0-11.7,9.1-21.2,20.2-21.2H681s3,0,3.5.6c1.2,1.3,1.1,6.6,1.1,6.6h35.1c6.2,1.4,10,4.7,10,23.3" fill="none" stroke="#2b4ea2" stroke-linecap="round" stroke-miterlimit="10" stroke-width="4"/>
  </g>
</svg>
