<svg width="93.7px" height="93.7px" viewBox="0 -4.45 93.7 93.7" xmlns="http://www.w3.org/2000/svg">
  <g id="Group_17" data-name="Group 17" transform="translate(-467.9 -675.4)">
    <path id="Path_35" data-name="Path 35" d="M538.5,677.4H490.2a13.359,13.359,0,0,0-13.3,13.3V736h74.8V690.7A13.209,13.209,0,0,0,538.5,677.4Z" fill="none" stroke="#2b4ea2" stroke-linecap="round" stroke-miterlimit="10" stroke-width="4"/>
    <line id="Line_13" data-name="Line 13" x1="10.9" y2="10.9" transform="translate(517.1 710.1)" fill="none" stroke="#2b4ea2" stroke-linecap="round" stroke-miterlimit="10" stroke-width="4"/>
    <line id="Line_14" data-name="Line 14" x1="10.9" y2="10.9" transform="translate(530.1 705.8)" fill="none" stroke="#2b4ea2" stroke-linecap="round" stroke-miterlimit="10" stroke-width="4"/>
    <path id="Path_36" data-name="Path 36" d="M554.3,758.2H475.2a5.335,5.335,0,0,1-5.3-5.3v-.3a5.335,5.335,0,0,1,5.3-5.3h79.1a5.335,5.335,0,0,1,5.3,5.3v.3A5.335,5.335,0,0,1,554.3,758.2Z" fill="none" stroke="#2b4ea2" stroke-linecap="round" stroke-miterlimit="10" stroke-width="4"/>
    <line id="Line_15" data-name="Line 15" x1="6.7" y2="13.4" transform="translate(471.1 735.9)" fill="none" stroke="#2b4ea2" stroke-linecap="round" stroke-miterlimit="10" stroke-width="4"/>
    <line id="Line_16" data-name="Line 16" x1="7.6" y1="13.1" transform="translate(550.6 735.6)" fill="none" stroke="#2b4ea2" stroke-linecap="round" stroke-miterlimit="10" stroke-width="4"/>
  </g>
</svg>
