<svg width="88.9px" height="88.9px" viewBox="-8.47 0 88.9 88.9" xmlns="http://www.w3.org/2000/svg">
  <g id="Group_18" data-name="Group 18" transform="translate(-652 -672)">
    <path id="Path_37" data-name="Path 37" d="M718.8,717.1V691.8L702.4,674H664.5A10.5,10.5,0,0,0,654,684.5v63.9a10.5,10.5,0,0,0,10.5,10.5h43.8a10.5,10.5,0,0,0,10.5-10.5v-8" fill="none" stroke="#2b4ea2" stroke-linecap="round" stroke-miterlimit="10" stroke-width="4"/>
    <path id="Path_38" data-name="Path 38" d="M697.3,675.1v16.4s-.2,5.8,3.5,5.8h16.4" fill="none" stroke="#2b4ea2" stroke-linecap="round" stroke-miterlimit="10" stroke-width="4"/>
    <path id="Path_39" data-name="Path 39" d="M721.9,729.2a3.172,3.172,0,0,1-3.7,3.7,3.209,3.209,0,0,1-2.5-2.5,3.172,3.172,0,0,1,3.7-3.7A3.512,3.512,0,0,1,721.9,729.2Z" fill="#2b4ea2" stroke="#2b4ea2" stroke-miterlimit="10" stroke-width="4"/>
  </g>
</svg>
