<svg width="90.1px" height="90.1px" viewBox="-15.55 0 90.1 90.1" xmlns="http://www.w3.org/2000/svg">
  <g id="Group_24" data-name="Group 24" transform="translate(-480.1 -460.4)">
    <path id="Path_18" data-name="Path 18" d="M482.1,489.9c0,15.2,17.4,48.3,27.5,48.3,9.9,0,27.5-33.2,27.5-48.3a27.5,27.5,0,0,0-55,0Z" fill="none" stroke="#2b4ea2" stroke-linecap="round" stroke-linejoin="round" stroke-miterlimit="10" stroke-width="4"/>
    <path id="Path_19" data-name="Path 19" d="M521.7,487.2a12.115,12.115,0,0,1-13.6,13.6,12.3,12.3,0,0,1-10.5-10.5,12.115,12.115,0,0,1,13.6-13.6A12.41,12.41,0,0,1,521.7,487.2Z" fill="none" stroke="#2b4ea2" stroke-linecap="round" stroke-linejoin="round" stroke-miterlimit="10" stroke-width="4"/>
    <path id="Path_20" data-name="Path 20" d="M537.1,537.3c0,6.2-12.3,11.2-27.5,11.2s-27.5-5-27.5-11.2c0-3.9,5-7.4,12.5-9.4" fill="none" stroke="#2b4ea2" stroke-linecap="round" stroke-linejoin="round" stroke-miterlimit="10" stroke-width="4"/>
  </g>
</svg>
