<svg width="95px" height="95px" viewBox="-2.8 0 95 95" xmlns="http://www.w3.org/2000/svg">
  <g id="Group_16" data-name="Group 16" transform="translate(-641.5 -462.6)">
    <path id="Path_8" data-name="Path 8" d="M721.7,555.6h-71a7.17,7.17,0,0,1-7.2-7.2h0a7.17,7.17,0,0,1,7.2-7.2h71a7.17,7.17,0,0,1,7.2,7.2h0A7.17,7.17,0,0,1,721.7,555.6Z" fill="none" stroke="#2b4ea2" stroke-linecap="round" stroke-linejoin="round" stroke-miterlimit="10" stroke-width="4"/>
    <path id="Path_9" data-name="Path 9" d="M656.2,464.6h-5a7.768,7.768,0,0,0-7.7,7.7v47.6a7.768,7.768,0,0,0,7.7,7.7h5a7.768,7.768,0,0,0,7.7-7.7V472.3A7.7,7.7,0,0,0,656.2,464.6Z" fill="none" stroke="#2b4ea2" stroke-linecap="round" stroke-linejoin="round" stroke-miterlimit="10" stroke-width="4"/>
    <path id="Path_10" data-name="Path 10" d="M691.3,496.2h-9.6a5.378,5.378,0,0,0-5.4,5.4v20.5a5.378,5.378,0,0,0,5.4,5.4h9.6a5.378,5.378,0,0,0,5.4-5.4V501.6A5.378,5.378,0,0,0,691.3,496.2Z" fill="none" stroke="#2b4ea2" stroke-linecap="round" stroke-linejoin="round" stroke-miterlimit="10" stroke-width="4"/>
    <path id="Path_11" data-name="Path 11" d="M722.4,482.4H715a6.487,6.487,0,0,0-6.5,6.5V521a6.487,6.487,0,0,0,6.5,6.5h7.4a6.487,6.487,0,0,0,6.5-6.5V488.9A6.487,6.487,0,0,0,722.4,482.4Z" fill="none" stroke="#2b4ea2" stroke-linecap="round" stroke-linejoin="round" stroke-miterlimit="10" stroke-width="4"/>
  </g>
</svg>
