<svg width="32" height="32" viewBox="0 0 32 32" fill="none" xmlns="http://www.w3.org/2000/svg">
<path d="M15 8.41421V20C15 20.5523 15.4477 21 16 21C16.5523 21 17 20.5523 17 20V8.41421L19.2929 10.7071C19.6834 11.0976 20.3166 11.0976 20.7071 10.7071C21.0976 10.3166 21.0976 9.68342 20.7071 9.29289L16.7071 5.29289C16.3166 4.90237 15.6834 4.90237 15.2929 5.29289L11.2929 9.29289C10.9024 9.68342 10.9024 10.3166 11.2929 10.7071C11.6834 11.0976 12.3166 11.0976 12.7071 10.7071L15 8.41421Z" fill="#616575"/>
<path d="M24 25H8C7.44772 25 7 24.5523 7 24V22C7 21.4477 6.55228 21 6 21C5.44772 21 5 21.4477 5 22V24C5 25.6569 6.34315 27 8 27H24C25.6569 27 27 25.6569 27 24V22C27 21.4477 26.5523 21 26 21C25.4477 21 25 21.4477 25 22V24C25 24.5523 24.5523 25 24 25Z" fill="#616575"/>
</svg>
