<svg width="32" height="32" viewBox="0 0 32 32" fill="none" xmlns="http://www.w3.org/2000/svg">
<path fill-rule="evenodd" clip-rule="evenodd" d="M15.4367 2.17377C15.7765 1.94208 16.2235 1.94208 16.5633 2.17377L27.5633 9.67377C27.8365 9.86005 28 10.1693 28 10.5V27C28 27.5523 27.5523 28 27 28H21C20.4477 28 20 27.5523 20 27V20C20 17.7909 18.2091 16 16 16C13.7909 16 12 17.7909 12 20V27C12 27.5523 11.5523 28 11 28H5C4.44772 28 4 27.5523 4 27V10.5C4 10.1693 4.16346 9.86005 4.43666 9.67377L15.4367 2.17377Z" fill="#008DFF"/>
</svg>
