<svg width="32" height="32" viewBox="0 0 32 32" fill="none" xmlns="http://www.w3.org/2000/svg">
<path fill-rule="evenodd" clip-rule="evenodd" d="M25.4394 29.8983C25.0963 30.0661 24.6875 30.0238 24.3861 29.7894L16 23.2669L7.61394 29.7894C7.31246 30.0238 6.90375 30.0661 6.56065 29.8983C6.21755 29.7305 6 29.3819 6 29L6 5C6 3.34315 7.34315 2 9 2L23 2C24.6569 2 26 3.34315 26 5L26 29C26 29.3819 25.7824 29.7305 25.4394 29.8983ZM24 26.9554L24 5C24 4.44772 23.5523 4 23 4L9 4C8.44772 4 8 4.44772 8 5L8 26.9554L14.7721 21.6882C15.4943 21.1264 16.5057 21.1264 17.2279 21.6882L24 26.9554Z" fill="#616575"/>
</svg>
