<svg width="32" height="32" viewBox="0 0 32 32" fill="none" xmlns="http://www.w3.org/2000/svg">
<path fill-rule="evenodd" clip-rule="evenodd" d="M15.9424 3C16.296 2.99934 16.6237 3.18552 16.8042 3.48966L29.86 25.4897C30.0434 25.7987 30.0468 26.1825 29.869 26.4948C29.6912 26.8071 29.3594 27 29 27H3C2.64126 27 2.31001 26.8078 2.13192 26.4964C1.95384 26.185 1.9562 25.8021 2.13812 25.4929L15.0824 3.49289C15.2617 3.18808 15.5887 3.00067 15.9424 3ZM14.5903 13.083C14.5417 12.5 15.0018 12 15.5868 12H16.4132C16.9982 12 17.4583 12.5 17.4097 13.083L17.0764 17.083C17.0332 17.6013 16.6 18 16.0799 18H15.9201C15.4 18 14.9668 17.6013 14.9236 17.083L14.5903 13.083ZM17.5 21.5C17.5 22.3284 16.8284 23 16 23C15.1716 23 14.5 22.3284 14.5 21.5C14.5 20.6716 15.1716 20 16 20C16.8284 20 17.5 20.6716 17.5 21.5Z" fill="#008DFF"/>
</svg>
