<svg width="32" height="32" viewBox="0 0 32 32" fill="none" xmlns="http://www.w3.org/2000/svg">
<path fill-rule="evenodd" clip-rule="evenodd" d="M24.2657 4.29832C24.6547 3.90026 25.294 3.89652 25.6877 4.28999L27.704 6.30504C28.0916 6.69238 28.0952 7.3195 27.7122 7.71136L25.3537 10.1243L21.9495 6.6679L24.2657 4.29832ZM20.5514 8.09824L6.3151 22.6631L4.58982 27.5138L9.76505 26.0726L23.9556 11.5546L20.5514 8.09824ZM27.1015 2.87534C25.9203 1.69493 24.0026 1.70616 22.8354 2.90033L4.73137 21.4221C4.63026 21.5256 4.55279 21.6497 4.50432 21.786L2.0598 28.6589C1.93469 29.0106 2.01594 29.4028 2.27051 29.6759C2.52509 29.949 2.91058 30.0575 3.27024 29.9573L10.5605 27.9272C10.7302 27.88 10.8843 27.7888 11.0074 27.6629L29.1425 9.10935C30.2915 7.93378 30.2805 6.05242 29.1177 4.89039L27.1015 2.87534Z" fill="#38376B"/>
</svg>
