<svg width="32" height="32" viewBox="0 0 32 32" fill="none" xmlns="http://www.w3.org/2000/svg">
<path fill-rule="evenodd" clip-rule="evenodd" d="M16 2C10.874 2 6.69231 6.0965 6.69231 11.1818V13.4176C6.69231 16.1201 5.68542 18.731 3.85873 20.7549C3.30694 21.3663 3 22.1586 3 22.9819V23C3 23.5523 3.44772 24 4 24H28C28.5523 24 29 23.5523 29 23V22.9819C29 22.1586 28.6931 21.3663 28.1413 20.7549C26.3146 18.731 25.3077 16.1201 25.3077 13.4176V11.1818C25.3077 6.0965 21.126 2 16 2ZM8.69231 11.1818C8.69231 7.22975 11.9496 4 16 4C20.0504 4 23.3077 7.22975 23.3077 11.1818V13.4176C23.3077 16.5766 24.4694 19.6248 26.5717 22H5.4283C7.5306 19.6248 8.69231 16.5766 8.69231 13.4176V11.1818ZM14.1135 26.6668C13.9295 26.146 13.3582 25.8731 12.8375 26.0572C12.3167 26.2412 12.0438 26.8125 12.2279 27.3332C12.7765 28.8855 14.2568 30 16 30C17.7432 30 19.2235 28.8855 19.7721 27.3332C19.9562 26.8125 19.6833 26.2412 19.1625 26.0572C18.6418 25.8731 18.0705 26.146 17.8865 26.6668C17.6114 27.4449 16.8693 28 16 28C15.1307 28 14.3886 27.4449 14.1135 26.6668Z" fill="#38376B"/>
</svg>
