<svg width="32" height="32" viewBox="0 0 32 32" fill="none" xmlns="http://www.w3.org/2000/svg">
<path fill-rule="evenodd" clip-rule="evenodd" d="M28 6C29.1046 6 30 6.89543 30 8V24C30 25.1046 29.1046 26 28 26L4 26C2.89543 26 2 25.1046 2 24V8C2 6.89543 2.89543 6 4 6H28ZM28 24V19.4142L22.4863 13.9005L11.9828 24L28 24ZM23.9005 12.4863L28 16.5858V8L4 8L4 24H9.09722L21.1001 12.4588C21.8852 11.7038 23.1302 11.716 23.9005 12.4863ZM12 14C12 15.1046 11.1046 16 10 16C8.89543 16 8 15.1046 8 14C8 12.8954 8.89543 12 10 12C11.1046 12 12 12.8954 12 14ZM14 14C14 16.2091 12.2091 18 10 18C7.79086 18 6 16.2091 6 14C6 11.7909 7.79086 10 10 10C12.2091 10 14 11.7909 14 14Z" fill="#008DFF"/>
</svg>
