<svg width="32" height="32" viewBox="0 0 32 32" fill="none" xmlns="http://www.w3.org/2000/svg">
<path fill-rule="evenodd" clip-rule="evenodd" d="M16.5633 2.17377C16.2235 1.94208 15.7765 1.94208 15.4367 2.17377L4.43666 9.67377C4.16346 9.86005 4 10.1693 4 10.5V27C4 27.5523 4.44772 28 5 28H11C11.5523 28 12 27.5523 12 27V20C12 17.7909 13.7909 16 16 16C18.2091 16 20 17.7909 20 20V27C20 27.5523 20.4477 28 21 28H27C27.5523 28 28 27.5523 28 27V10.5C28 10.1693 27.8365 9.86005 27.5633 9.67377L16.5633 2.17377ZM6 26V11.0285L16 4.21032L26 11.0285V26H22V20C22 16.6863 19.3137 14 16 14C12.6863 14 10 16.6863 10 20V26H6Z" fill="#38376B"/>
</svg>
