<?xml version="1.0" encoding="utf-8"?>
<!-- Generator: Adobe Illustrator 23.0.4, SVG Export Plug-In . SVG Version: 6.00 Build 0)  -->
<svg version="1.1" id="Layer_1" xmlns="http://www.w3.org/2000/svg" xmlns:xlink="http://www.w3.org/1999/xlink" x="0px" y="0px"
	 viewBox="0 0 877.9 877.9" style="enable-background:new 0 0 877.9 877.9;" xml:space="preserve">
<style type="text/css">
	.st0{fill:#FFFFFF;}
	.st1{fill:#2B252C;}
	.st2{fill:#64B5E3;}
</style>
<title>floof-with-border</title>
<circle class="st0" cx="439" cy="439" r="439"/>
<path class="st1" d="M513.6,528.9c-2.3-0.6-4.8,0.8-5.4,3.1l0,0l0,0l0,0.2c0,0.2-0.1,0.4-0.3,0.8c-0.4,1-0.8,2-1.3,3
	c-1.5,3.2-3.6,6.1-6,8.6c-2,2.1-4.4,3.9-7,5.3c-4.5,2.3-9.4,3.4-14.4,3.3c-6.1,0.1-12.1-1.4-17.4-4.5c-4.4-2.5-8-6.4-10.2-11
	c-1.4-3-2.1-6.2-2.1-9.5v-10.7c4.4-0.6,8.6-2.7,11.8-5.9c2.9-3,5.2-6.6,6.5-10.6c2,0.9,4.1,1.6,6.2,2.1c2.4,0.5,4.9,0.8,7.3,0.8
	c2.5,0,4.9-0.3,7.3-0.9c2.9-0.7,5.5-2.5,7.2-4.9c2.4-3.3,3.2-7.4,2.3-11.3c-0.5-2.4-2.9-3.9-5.2-3.4s-3.9,2.9-3.4,5.2
	c0,0.1,0,0.2,0.1,0.3c0.1,0.4,0.1,0.8,0.1,1.2c0,1-0.3,2-0.9,2.8c-0.6,0.8-1.4,1.4-2.3,1.6c-1.7,0.4-3.4,0.6-5.1,0.6
	c-1.8,0-3.7-0.2-5.5-0.6c-1.6-0.3-3.1-0.8-4.6-1.5l0,0c-1.1-0.6-2.4-0.9-3.7-0.9c-3.6,0-6.8,2.3-8,5.7c-0.7,2.1-1.7,4.1-3,5.9
	c-1.3,1.9-3.2,3.4-5.3,4.3c-1.8,0.7-3.6,1.1-5.5,1h-1.1c-1.9,0.1-3.8-0.3-5.5-1c-1.4-0.6-2.7-1.5-3.9-2.6c-2.1-2.2-3.6-4.8-4.5-7.6
	l0,0c-1.2-3.4-4.4-5.7-8-5.7c-1.3,0-2.6,0.3-3.7,0.9c-1.4,0.7-3,1.2-4.5,1.5c-1.8,0.4-3.6,0.6-5.5,0.6c-1.7,0-3.4-0.2-5.1-0.6
	c-0.9-0.2-1.8-0.8-2.3-1.6c-0.6-0.8-0.9-1.8-0.9-2.8c0-0.4,0-0.8,0.1-1.2l0,0c0.6-2.4-0.9-4.8-3.2-5.3c-2.4-0.6-4.8,0.9-5.3,3.2
	c-0.3,1.1-0.4,2.2-0.4,3.3c0,2.9,0.9,5.7,2.6,8.1c1.8,2.4,4.3,4.2,7.2,4.9c2.4,0.6,4.8,0.9,7.3,0.9c2.5,0,4.9-0.3,7.3-0.8
	c2.1-0.4,4.2-1.1,6.2-2.1c1,2.8,2.4,5.5,4.1,7.9c2.3,3.1,5.4,5.6,8.9,7.2c1.6,0.7,3.3,1.2,5,1.4v10.7c0,3.3-0.7,6.5-2,9.5
	c-1.4,3-3.4,5.7-5.9,7.9c-5.1,4.6-12.4,7.6-21.6,7.6c-3.8,0-7.5-0.6-11.1-1.8c-2.9-1-5.5-2.5-7.9-4.5c-3.6-3-6.5-6.8-8.5-11.1
	c-0.6-1.2-1.1-2.4-1.5-3.7l0,0c-0.6-2.4-3.1-3.7-5.4-3.1c-2.4,0.6-3.7,3.1-3.1,5.4c0.5,1.9,1.3,3.7,2.1,5.5c1.9,4,4.5,7.7,7.6,10.9
	c2.7,2.8,5.8,5.2,9.3,7c5.7,2.9,12.1,4.4,18.5,4.3c5.5,0,11-1,16.2-3c14.2,11.1,29.5,7.4,36.1,0.2c5,1.8,10.4,2.8,15.7,2.8
	c5,0,9.9-0.8,14.6-2.5c3.8-1.5,7.4-3.6,10.5-6.2c4.6-4,8.3-8.9,10.7-14.4c0.7-1.5,1.2-3,1.7-4.5l0,0
	C517.3,532,516,529.5,513.6,528.9z"/>
<path class="st1" d="M528.6,413.5c-9.9,0-18.1,7.5-19.2,17.3c-0.1,1,0.6,1.9,1.6,2c0.1,0,0.1,0,0.2,0H546c1,0,1.8-0.8,1.8-1.8
	c0-0.1,0-0.1,0-0.2C546.7,421,538.5,413.5,528.6,413.5z"/>
<path class="st1" d="M476.6,581.6c-9.4,5.4-20.1,8.2-30.9,8.2l0,0c-0.2,0-0.4,0-0.5,0c-0.2,0-0.4,0-0.5,0c-10.8,0-21.5-2.8-30.9-8.2
	c-2.1-1.2-4.8-0.5-6,1.7c-1.2,2.1-0.5,4.8,1.7,6l0,0c10.7,6.1,22.9,9.3,35.2,9.3c0.2,0,0.4,0,0.5-0.1c0.2,0,0.4,0.1,0.5,0.1
	c12.4,0,24.5-3.2,35.2-9.3c2.1-1.2,2.9-3.9,1.7-6C481.4,581.2,478.7,580.4,476.6,581.6L476.6,581.6z"/>
<path class="st1" d="M361.8,413.5c-9.9,0-18.1,7.5-19.1,17.3c-0.1,1,0.6,1.9,1.6,2c0.1,0,0.1,0,0.2,0h34.7c1,0,1.8-0.8,1.8-1.8
	c0-0.1,0-0.1,0-0.2C379.9,421,371.6,413.5,361.8,413.5z"/>
<path class="st2" d="M439,65.4C232.6,65.4,65.4,232.6,65.4,439c0,166,108.3,306.8,258.1,355.4c10.8-34.5,16.4-83.1,16.4-157.3v-47.2
	l-21.3-25.7c-7.8-9.4-11.4-21.5-10.2-33.6c1-9.6,5.7-50.3,9.1-80.8c8.9,16.1,25.8,26.1,44.2,26c26.9,0,49.8-19.7,53.8-46.3
	c0.2-0.4,0.3-0.8,0.4-1.2c0.8-3.2,2.1-6.2,4-8.9c1.8-2.6,4-4.8,6.5-6.7c5.5-3.8,12-5.8,18.7-5.8c5.1,0,10.1,1.1,14.6,3.3
	c4.3,2.1,7.9,5.2,10.6,9.1c1.9,2.7,3.2,5.7,4,8.9c0.1,0.4,0.3,0.8,0.4,1.2c4,26.6,26.9,46.3,53.8,46.3c18.8,0.2,36.1-10.2,44.8-26.9
	c3.3,30.7,7.6,72.2,8.6,81.7c1.2,12.1-2.4,24.2-10.2,33.6l-21.3,25.7l4.6,84.9c1.9,25.2,0.1,73.1-5.2,121.1
	C702,748.6,812.6,606.7,812.6,439C812.6,232.6,645.3,65.4,439,65.4z M505.5,118.1c11.8,10.2,61.8,58.2,61.8,131
	c0,15.2-5,29.2-10.4,40c-0.4,0.7-1.3,1-2,0.6c-0.1-0.1-0.2-0.2-0.3-0.3c-4.1-3.8-11.3-5-15.3-5.3c-1.6-0.2-2.8-1.5-2.7-3.1
	c0.3-8.3-3.9-15.1-10-20.7c-5.7-5.2-15-4.5-19.9-3.7c-1.6,0.3-3.1-0.8-3.4-2.4c0-0.2,0-0.3,0-0.5c0-21.6-0.2-134.6-0.2-134.6
	c0-0.8,0.6-1.5,1.5-1.5C504.9,117.7,505.2,117.9,505.5,118.1z M396.3,122.3c0.7-0.5,1.6-0.2,2.1,0.5c0.2,0.2,0.2,0.5,0.2,0.8v100.6
	c0,0.8-0.7,1.5-1.5,1.5c-10-0.1-19.1,5.6-23.4,14.6c-0.4,0.7-1.2,1-1.9,0.7c0,0,0,0-0.1,0c-3.2-1.7-11.7-5.5-21-2.7
	c-3.4,1-6.6,2.8-9.3,5.2c-0.6,0.5-1.5,0.5-2.1-0.1c-0.3-0.3-0.4-0.7-0.4-1.1C345.3,161,383,130.5,396.3,122.3z M361.8,464
	c-17.5,0-31.8-10.6-37.4-27.7c-1.6-4.8-2.3-9.8-2.3-14.9c-0.1-3.9,0.9-7.7,3-11l0,0c2.5-3.5,5.8-6.4,9.7-8.2c16.9-8.8,37-8.8,53.9,0
	c10.4,5.4,15.7,11.9,15.7,19.2C404.3,445,385.3,464,361.8,464L361.8,464z M477.3,409c-1.9-2.2-4.1-4.2-6.5-5.9
	c-7.4-5.2-16.3-7.9-25.4-7.9h-0.6c-6.7,0-13.4,1.6-19.5,4.5c-4.7,2.3-8.8,5.4-12.2,9.3c-3-5.8-8.7-11.9-19-17.3
	c-20.3-10.6-44.5-10.6-64.8,0c-7.3,3.9-10.2,7.3-18.4,3.9c-5-2.1-7.3-1.4-12.6,0.9c-6.3,1.9-13.1,0-17.5-4.9l-0.4-0.5
	c-3.2-3.9-4.6-9-3.7-14c0.8-4.7-2.2-9.2-6.9-10.1c-9.2-1.9-15.1-11-13.1-20.1c0.3-1.3,0.7-2.5,1.2-3.7c2-4.3,0.2-9.5-4.1-11.6
	c-4.4-2.2-7.6-6.1-8.9-10.8l-0.1-0.6c-1.1-4.9-0.1-10,2.9-14c2.8-3.8,2.1-9.2-1.6-12.2c-7.4-5.8-8.7-16.4-3-23.9
	c0.5-0.6,1-1.2,1.6-1.8c3.4-3.3,3.6-8.8,0.3-12.3c-6.4-6.9-6-17.6,0.9-24c1.1-1,2.3-1.9,3.6-2.6c2.5-1.3,4-3.9,3.9-6.7
	c-0.5-18.1,11.3-25.4,14.9-27.2c4.3-2.1,8.8-2.7,12.2-1.7c-7.9,11.2-7.2,21-6,26c1,3.9,4.4,6.7,8.5,6.7h0.3
	c8.5-0.3,15.8,5.8,17.3,14.1c0.8,4.8,5.4,8.1,10.2,7.3c0.5-0.1,1-0.2,1.5-0.4c6.7-2.7,14.4-0.8,19,4.8c3.2,3.7,8.8,4.2,12.5,1
	c0.5-0.4,0.9-0.8,1.2-1.3c5.6-7,15.7-8.4,23-3.2c2.1,1.5,4.9,2,7.4,1.2c2.6-0.8,4.8-2.7,5.8-5.2c2.2-5.4,7-9.3,12.8-10.2
	c1.4-0.2,2.8-0.3,4.2-0.2c4.5,0.3,8.6,2.4,11.6,5.7c3.2,3.7,8.8,4.1,12.5,1c0.5-0.4,0.9-0.9,1.3-1.4c3.6-4.7,9.5-7.2,15.4-6.5
	c6,0.6,11.1,4.4,13.6,9.8c2,4.5,7.3,6.4,11.7,4.4c0.6-0.3,1.1-0.6,1.6-1c4.3-3.2,11.8-3.9,18.6-1.9c5.7,1.7,10,6.9,10,12
	c0,0.5-0.4,6.3,3.5,8.1c2.8,1.4,6,1.7,9,0.8c4.9-1.6,10.2-0.9,14.5,1.9c4.8,3.5,7.2,9.4,6.2,15.2c-0.8,4.8,2.6,9.4,7.4,10.1
	c0.7,0.1,1.4,0.1,2.1,0.1c5-0.4,10,1.4,13.4,5.1c0.6,0.6,1.1,1.2,1.5,1.9c4.2,6.3,2.7,13.2,0.6,17.9c-1,2.2-1,4.7-0.1,7
	c0.9,2.2,2.6,3.9,4.8,4.8c4.5,1.8,7.5,6.1,7.7,10.9l1.7,54.9c-1.8-1.4-3.8-2.6-5.8-3.6c-20.3-10.5-44.5-10.5-64.8,0
	C485.9,397.1,480.3,403.3,477.3,409L477.3,409z M566.4,434.9c-5.1,17.7-19.9,29.1-37.8,29.1c-23.5,0-42.6-19.1-42.6-42.6
	c0-7.4,5.3-13.8,15.7-19.2c16.9-8.8,37-8.8,53.9,0c3.8,1.8,7.1,4.6,9.5,8l0,0c2.2,3.3,3.3,7.3,3.1,11.2
	C568.3,426,567.7,430.5,566.4,434.9L566.4,434.9z"/>
</svg>
