<svg width="32" height="32" viewBox="0 0 32 32" fill="none" xmlns="http://www.w3.org/2000/svg">
<path d="M17 24.5H8C7.72386 24.5 7.5 24.2761 7.5 24L7.5 9.62132L8.93934 11.0607C9.52513 11.6464 10.4749 11.6464 11.0607 11.0607C11.6465 10.4749 11.6465 9.52513 11.0607 8.93934L7.06066 4.93934C6.47488 4.35355 5.52513 4.35355 4.93934 4.93934L0.93934 8.93934C0.353553 9.52513 0.353553 10.4749 0.93934 11.0607C1.52513 11.6464 2.47487 11.6464 3.06066 11.0607L4.5 9.62132L4.5 24C4.5 25.933 6.067 27.5 8 27.5H17C17.8284 27.5 18.5 26.8284 18.5 26C18.5 25.1716 17.8284 24.5 17 24.5Z" fill="#184BCB"/>
<path d="M24 4.5H15C14.1716 4.5 13.5 5.17157 13.5 6C13.5 6.82843 14.1716 7.5 15 7.5H24C24.2761 7.5 24.5 7.72386 24.5 8V22.3787L23.0607 20.9393C22.4749 20.3536 21.5251 20.3536 20.9393 20.9393C20.3536 21.5251 20.3536 22.4749 20.9393 23.0607L24.9393 27.0607C25.5251 27.6464 26.4749 27.6464 27.0607 27.0607L31.0607 23.0607C31.6464 22.4749 31.6464 21.5251 31.0607 20.9393C30.4749 20.3536 29.5251 20.3536 28.9393 20.9393L27.5 22.3787V8C27.5 6.067 25.933 4.5 24 4.5Z" fill="#184BCB"/>
</svg>
