<svg width="32" height="32" viewBox="0 0 32 32" fill="none" xmlns="http://www.w3.org/2000/svg">
<path d="M10.9333 4C8.97435 4 7.15749 4.71507 5.8666 6.03123C4.5669 7.35638 3.85831 9.23274 4.02505 11.4274C4.16818 13.3113 5.0039 15.2759 6.09002 17.1108C7.18464 18.9601 8.58279 20.7588 9.94618 22.3254C11.3122 23.895 12.6594 25.2501 13.6642 26.2122C14.1671 26.6937 14.5856 27.0781 14.8794 27.343C15.0264 27.4755 15.1422 27.5782 15.222 27.6483C15.2619 27.6834 15.2928 27.7104 15.3141 27.7288L15.3386 27.7501L15.3479 27.7581C15.7227 28.0802 16.277 28.0805 16.6518 27.7584L16.6528 27.7576L16.6614 27.7501L16.686 27.7288C16.7072 27.7104 16.7381 27.6834 16.778 27.6483C16.8578 27.5782 16.9737 27.4755 17.1206 27.343C17.4145 27.0781 17.833 26.6937 18.3359 26.2122C19.3406 25.2501 20.6879 23.895 22.0539 22.3254C23.4173 20.7588 24.8154 18.9601 25.9101 17.1108C26.9962 15.2759 27.8319 13.3113 27.975 11.4274C28.1417 9.23274 27.4332 7.35638 26.1335 6.03123C24.8426 4.71507 23.0257 4 21.0667 4C18.5826 4 17.0387 5.19128 16.1479 6.38769C16.0964 6.45685 16.0472 6.52594 16 6.59472C15.9529 6.52594 15.9036 6.45685 15.8521 6.38769C14.9614 5.19128 13.4174 4 10.9333 4Z" fill="#D70072"/>
</svg>
