<?xml version="1.0" encoding="UTF-8"?>
<!-- Generated by Pixelmator Pro 3.2.1 -->
<svg width="32" height="32" viewBox="0 0 32 32" xmlns="http://www.w3.org/2000/svg" xmlns:xlink="http://www.w3.org/1999/xlink">
    <path id="Path" fill="#ffffff" fill-rule="evenodd" stroke="none" d="M 24.265699 4.298321 C 24.654699 3.900261 25.294001 3.896521 25.6877 4.289989 L 27.704 6.30504 C 28.0916 6.692379 28.0952 7.3195 27.7122 7.711361 L 25.353701 10.1243 L 21.949499 6.6679 L 24.265699 4.298321 Z M 20.551399 8.09824 L 6.3151 22.663099 L 4.58982 27.5138 L 9.76505 26.072599 L 23.955601 11.5546 L 20.551399 8.09824 Z M 27.1015 2.87534 C 25.9203 1.694929 24.0026 1.70616 22.8354 2.90033 L 4.73137 21.4221 C 4.63026 21.5256 4.55279 21.6497 4.50432 21.785999 L 2.0598 28.658899 C 1.93469 29.010599 2.01594 29.4028 2.27051 29.6759 C 2.52509 29.948999 2.91058 30.057501 3.27024 29.9573 L 10.5605 27.9272 C 10.7302 27.879999 10.8843 27.788799 11.0074 27.662901 L 29.1425 9.10935 C 30.2915 7.933781 30.2805 6.05242 29.117701 4.89039 L 27.1015 2.87534 Z"/>
</svg>
