<svg width="95.125px" height="95.125px" viewBox="-10 -10 110 110" xmlns="http://www.w3.org/2000/svg">
  <g transform="translate(-825.375 -463.025)">
    <path id="Path_21" data-name="Path 21" d="M882.7,473.2a33.339,33.339,0,1,1-44,0A33.367,33.367,0,0,1,882.7,473.2Z" fill="none" stroke="#000" stroke-linecap="round" stroke-linejoin="round" stroke-miterlimit="10" stroke-width="5"/>
    <path id="Path_22" data-name="Path 22" d="M850.8,510.5a14.885,14.885,0,0,1,5.8-28.6" fill="none" stroke="#000" stroke-linecap="round" stroke-linejoin="round" stroke-miterlimit="10" stroke-width="5"/>
    <path id="Path_23" data-name="Path 23" d="M894.5,526.1l-5.3,5.3a5.191,5.191,0,0,1-7.3,0h0a5.191,5.191,0,0,1,0-7.3l5.3-5.3a5.191,5.191,0,0,1,7.3,0h0A5.191,5.191,0,0,1,894.5,526.1Z" fill="none" stroke="#000" stroke-linecap="round" stroke-linejoin="round" stroke-miterlimit="10" stroke-width="5"/>
    <path id="Path_24" data-name="Path 24" d="M917,553.8h0a5.07,5.07,0,0,1-7.2,0l-17.3-17.3a5.07,5.07,0,0,1,0-7.2h0a5.07,5.07,0,0,1,7.2,0L917,546.6A5.07,5.07,0,0,1,917,553.8Z" fill="none" stroke="#000" stroke-linecap="round" stroke-linejoin="round" stroke-miterlimit="10" stroke-width="5"/>
    
  </g>
</svg>
