<svg width="46px" height="46px" viewBox="-8 0 46 46" xmlns="http://www.w3.org/2000/svg">
  <path id="_44.Share" data-name="44.Share" d="M34,47H14a5,5,0,0,1-5-5V24a5,5,0,0,1,5-5h4a1,1,0,0,1,0,2H14a3,3,0,0,0-3,3V42a3,3,0,0,0,3,3H34a3,3,0,0,0,3-3V24a3,3,0,0,0-3-3H30a1,1,0,0,1,0-2h4a5,5,0,0,1,5,5V42A5,5,0,0,1,34,47ZM31.334,10.715,25,4.381V30a1,1,0,0,1-2,0V4.381l-6.334,6.334a.977.977,0,0,1-1.381-1.381L23.19,1.429a.942.942,0,0,1,.095-.144A.973.973,0,0,1,23.99,1L24,1l.01,0a.973.973,0,0,1,.7.283.882.882,0,0,1,.091.14l7.909,7.909a.977.977,0,1,1-1.381,1.381Z" transform="translate(-9 -1)" fill-rule="evenodd"/>
</svg>
