<svg width="258" height="49" viewBox="0 0 258 49" fill="none" xmlns="http://www.w3.org/2000/svg">
<path d="M176.339 10.5218C173.644 10.5218 171.16 11.5294 169.45 13.287V2.88235C169.45 1.19512 168.348 0 166.848 0C165.349 0 164.247 1.21856 164.247 2.88235V36.088C164.247 37.7518 165.349 38.9704 166.848 38.9704C168.231 38.9704 169.286 37.9393 169.45 36.4864C171.184 38.2439 173.644 39.275 176.363 39.275C183.229 39.275 188.033 33.3697 188.033 24.9101C188.009 16.4271 183.205 10.5218 176.339 10.5218ZM176.058 15.6303C180.089 15.6303 182.783 19.3563 182.783 24.8867C182.783 30.417 180.089 34.143 176.058 34.143C172.098 34.143 169.332 30.3467 169.332 24.8867C169.332 19.4266 172.098 15.6303 176.058 15.6303Z" fill="#008DFF"/>
<path d="M199.632 33.8618C199.328 33.8618 198.367 33.8618 198.367 31.2372V2.88235C198.367 1.19512 197.265 0 195.766 0C194.266 0 193.165 1.21856 193.165 2.88235V31.2372C193.165 36.2286 195.461 38.9704 199.656 38.9704C201.273 38.9704 202.491 37.869 202.491 36.4161C202.468 34.9632 201.226 33.8618 199.632 33.8618Z" fill="#008DFF"/>
<path d="M226.23 10.803C224.706 10.803 223.628 12.0215 223.628 13.6853V26.7848C223.628 30.9092 220.957 34.1196 217.512 34.1196C213.716 34.1196 211.794 31.5653 211.794 26.5505V13.6619C211.794 11.9747 210.693 10.7796 209.193 10.7796C207.694 10.7796 206.592 11.9981 206.592 13.6619V26.7145C206.592 34.6586 210.482 39.2281 217.255 39.2281C219.809 39.2281 222.012 38.2908 223.675 36.4864C223.839 37.9393 224.894 38.9469 226.253 38.9469C227.776 38.9469 228.854 37.7284 228.854 36.0646V13.6853C228.831 12.0215 227.729 10.803 226.23 10.803Z" fill="#008DFF"/>
<path d="M257.795 24.8866C257.795 16.4271 252.874 10.5217 245.844 10.5217C238.837 10.5217 233.963 16.4271 233.963 24.8866C233.963 32.0339 237.829 39.2515 246.476 39.2515C249.523 39.2515 252.335 38.2205 254.397 36.3458C254.913 35.8771 255.616 35.1272 255.616 33.8852C255.616 32.4323 254.631 31.4481 253.178 31.4481C252.194 31.4481 251.421 32.0105 250.765 32.6198C249.617 33.6509 248.164 34.1664 246.43 34.1664C242.071 34.1664 240.009 30.8388 239.446 27.5112H255.194C256.74 27.4878 257.795 26.4567 257.795 24.8866ZM245.844 15.6303C249.242 15.6303 251.702 18.208 252.382 22.3792H239.376C240.032 18.1377 242.422 15.6303 245.844 15.6303Z" fill="#008DFF"/>
<path d="M22.8479 33.8618C22.5433 33.8618 21.5825 33.8618 21.5825 31.2372V20.5514C21.5825 14.2711 17.7394 10.5217 11.3185 10.5217C7.96748 10.5217 5.10856 11.5528 3.02296 13.4978C2.46055 14.0837 1.92157 14.7398 1.92157 15.8881C1.92157 17.341 2.90579 18.3252 4.35868 18.3252C5.2023 18.3252 5.78814 17.9737 6.23338 17.6456C6.39742 17.505 6.56146 17.3644 6.74893 17.2238C7.59254 16.4739 8.57676 15.6303 10.9904 15.6303C14.5524 15.6303 16.3568 17.341 16.3568 20.7154V21.5825H13.1932C4.42898 21.6059 0 24.582 0 30.4639C0 35.7365 3.81971 39.2515 9.53755 39.2515C12.8417 39.2515 15.56 38.033 17.2941 35.8068C18.3486 37.9158 20.2233 38.9703 22.8714 38.9703C24.4883 38.9703 25.7069 37.869 25.7069 36.4161C25.7069 34.9632 24.4649 33.8618 22.8479 33.8618ZM9.70158 34.143C6.9364 34.143 5.2726 32.7838 5.2726 30.5108C5.2726 26.9957 9.35008 26.7145 13.1698 26.7145H16.3568V26.8082C16.3568 31.1903 13.6853 34.143 9.70158 34.143Z" fill="#008DFF"/>
<path d="M36.2989 33.8618C35.9943 33.8618 35.0335 33.8618 35.0335 31.2372V2.88235C35.0335 1.19512 33.9321 0 32.4324 0C30.9326 0 29.8312 1.21856 29.8312 2.88235V31.2372C29.8312 36.2286 32.1277 38.9704 36.3224 38.9704C37.9393 38.9704 39.1579 37.869 39.1579 36.4161C39.1344 34.9632 37.9159 33.8618 36.2989 33.8618Z" fill="#008DFF"/>
<path d="M55.6552 10.5217C52.9369 10.5217 50.4763 11.5294 48.7422 13.3104C48.5782 11.834 47.5471 10.8264 46.1645 10.8264C44.6413 10.8264 43.5634 12.0449 43.5634 13.7087V46.1176C43.5634 47.7814 44.6648 49 46.1645 49C47.6643 49 48.7657 47.7814 48.7657 46.1176V36.5332C50.4998 38.2908 52.9603 39.2984 55.6552 39.2984C62.5213 39.2984 67.3252 33.3931 67.3252 24.9335C67.3018 16.4271 62.5213 10.5217 55.6552 10.5217ZM55.374 15.6303C59.4046 15.6303 62.0995 19.3563 62.0995 24.8866C62.0995 30.417 59.4046 34.143 55.374 34.143C51.4137 34.143 48.6485 30.3467 48.6485 24.8866C48.6485 19.4266 51.4137 15.6303 55.374 15.6303Z" fill="#008DFF"/>
<path d="M93.6179 33.8618C93.3133 33.8618 92.3525 33.8618 92.3525 31.2372V20.5514C92.3525 14.2711 88.5093 10.5217 82.0885 10.5217C78.7375 10.5217 75.8785 11.5528 73.7929 13.4978C73.2305 14.0602 72.6681 14.7164 72.6681 15.8881C72.6681 17.341 73.6523 18.3252 75.1052 18.3252C75.9488 18.3252 76.5347 17.9737 76.9799 17.6456C77.144 17.505 77.308 17.3644 77.4955 17.2238C78.3391 16.4739 79.3233 15.6303 81.737 15.6303C85.2989 15.6303 87.1033 17.341 87.1033 20.7154V21.5825H83.9163C75.1755 21.5825 70.7231 24.5586 70.7231 30.4404C70.7231 35.713 74.5428 39.2281 80.2607 39.2281C83.5648 39.2281 86.2831 38.0096 88.0172 35.7834C89.0718 37.8924 90.9464 38.9469 93.5945 38.9469C95.2114 38.9469 96.43 37.8455 96.43 36.3926C96.4534 34.9632 95.2348 33.8618 93.6179 33.8618ZM80.4481 34.143C77.6829 34.143 76.0191 32.7838 76.0191 30.5108C76.0191 26.9957 80.0966 26.7145 83.9163 26.7145H87.1033V26.8082C87.1268 31.1903 84.4319 34.143 80.4481 34.143Z" fill="#008DFF"/>
<path d="M111.381 15.6303C113.49 15.6303 114.872 16.4739 115.646 17.177C116.302 17.7862 117.075 18.3486 118.059 18.3486C119.489 18.3486 120.496 17.341 120.496 15.9115C120.496 14.6695 119.817 13.9197 119.301 13.451C117.239 11.5763 114.427 10.5452 111.381 10.5452C104.023 10.5452 98.8671 16.4505 98.8671 24.9101C98.8671 33.3697 104.023 39.275 111.381 39.275C114.427 39.275 117.239 38.2439 119.301 36.3692C119.817 35.9005 120.52 35.1507 120.52 33.9087C120.52 32.4558 119.536 31.4716 118.083 31.4716C117.099 31.4716 116.325 32.034 115.669 32.6432C114.896 33.3463 113.513 34.1899 111.381 34.1899C106.342 34.1899 104.093 29.55 104.093 24.9335C104.093 20.3171 106.342 15.6303 111.381 15.6303Z" fill="#008DFF"/>
<path d="M146.578 33.8618C146.274 33.8618 145.313 33.8618 145.313 31.2372V20.5514C145.313 14.2711 141.47 10.5217 135.049 10.5217C131.698 10.5217 128.839 11.5528 126.753 13.4978C126.191 14.0602 125.628 14.7164 125.628 15.8881C125.628 17.341 126.613 18.3252 128.066 18.3252C128.909 18.3252 129.495 17.9737 129.94 17.6456C130.104 17.505 130.268 17.3644 130.456 17.2238C131.299 16.4739 132.284 15.6303 134.697 15.6303C138.259 15.6303 140.064 17.341 140.064 20.7154V21.5825H136.877C128.136 21.5825 123.683 24.5586 123.683 30.4404C123.683 35.713 127.503 39.2281 133.221 39.2281C136.525 39.2281 139.243 38.0096 140.978 35.7834C142.032 37.8924 143.907 38.9469 146.555 38.9469C148.172 38.9469 149.39 37.8455 149.39 36.3926C149.414 34.9632 148.195 33.8618 146.578 33.8618ZM133.432 34.143C130.667 34.143 129.003 32.7838 129.003 30.5108C129.003 26.9957 133.08 26.7145 136.9 26.7145H140.087V26.8082C140.087 31.1903 137.416 34.143 133.432 34.143Z" fill="#008DFF"/>
</svg>
