<svg width="101" height="101" viewBox="0 0 101 101" fill="none" xmlns="http://www.w3.org/2000/svg">
<path d="M60.4433 79.4657C60.4433 80.0359 59.9952 81.4616 59.4657 82.2627C58.9361 83.0638 58.2437 83.7291 57.4833 84.2586C55.9626 85.3177 54.1432 85.8608 52.3645 85.8744C50.5723 85.9151 48.7664 85.4399 47.205 84.4623C46.431 83.9599 45.725 83.3353 45.1547 82.575C44.5981 81.8011 44.0821 80.3754 44.0278 79.8459C43.9735 79.3299 44.2858 79.5064 44.2858 79.5064C44.8696 79.9002 47.4494 82.1677 52.093 82.1677C56.7365 82.1677 59.6286 79.5743 60.1853 79.1262C60.1581 79.1398 60.4433 78.8954 60.4433 79.4657ZM63.4711 67.4901C63.0095 67.0828 62.8737 67.6666 62.7786 67.9789C62.7786 67.9789 62.6972 68.1962 62.5478 68.4813C62.3034 68.9022 61.5295 70.1649 59.9002 70.5587C54.985 71.7535 53.6272 69.3503 53.6137 67.463V66.2681C56.7365 65.725 56.0984 63.2131 58.1351 63.4032C59.1127 63.4983 59.6286 63.9871 59.6965 63.2946C59.7915 62.4392 58.5831 61.7332 57.9585 61.6245C56.2749 61.353 55.3652 62.3034 54.9579 62.6293C54.5505 62.9552 54.1296 63.2539 53.668 63.444C53.2063 63.6476 52.704 63.7155 52.2016 63.7155C51.6992 63.7155 51.1968 63.6476 50.7352 63.444C50.2735 63.2539 49.8526 62.9552 49.4453 62.6293C49.038 62.3034 48.1283 61.353 46.4446 61.6245C45.8201 61.7332 44.6116 62.4392 44.7067 63.2946C44.7881 63.9871 45.3041 63.4983 46.2681 63.4032C48.3048 63.2131 47.6666 65.725 50.7895 66.2681V67.463C50.7759 69.3503 49.4182 71.7535 44.503 70.5587C42.8737 70.1649 42.0998 68.8886 41.8554 68.4813C41.6924 68.2097 41.6245 67.9789 41.6245 67.9789C41.5295 67.6666 41.3801 67.0828 40.9321 67.4901C40.5383 67.8431 40.1174 68.685 40.4568 70.1785C40.5519 70.613 40.8234 70.9932 41.0814 71.3598C42.6972 73.6137 46.5532 73.3557 46.6076 73.5186C46.7569 73.9531 46.9877 74.4827 47.2457 74.8221C47.6395 75.3652 48.1418 75.7997 48.685 76.1527C49.6354 76.7501 50.708 77.076 51.7943 77.1303V77.1439C51.835 77.1439 52.0115 77.1439 52.188 77.1439C52.3645 77.1439 52.541 77.1439 52.5818 77.1439V77.1303C53.668 77.076 54.7542 76.7501 55.6911 76.1527C56.2342 75.7997 56.7365 75.3652 57.1303 74.8221C57.3747 74.4827 57.6191 73.9531 57.7685 73.5186C57.8228 73.3557 61.6788 73.6137 63.2946 71.3598C63.5526 70.9932 63.8241 70.613 63.9192 70.1785C64.2858 68.685 63.8649 67.8296 63.4711 67.4901ZM101 50.9932C101 73.4372 86.2002 92.4324 65.8336 98.7597C67.1235 85.1276 65.9287 74.3605 65.9287 74.3605L68.78 70.9253C69.8255 69.6761 70.3143 68.0468 70.1378 66.4311C70.002 65.1548 69.4317 59.615 68.9972 55.501C67.816 57.7277 65.6028 59.0991 63.0095 59.0991C60.5383 59.0991 58.3523 57.8635 57.0353 55.9626C56.6008 55.3381 56.3021 54.6456 56.0848 53.9124C55.7318 52.7447 54.6048 50.0292 51.8621 50.0292C49.5675 50.0292 48.4813 51.4684 47.9925 52.541C47.9789 52.6089 47.9518 52.6632 47.9382 52.7311C47.9246 52.7854 47.911 52.8398 47.8839 52.8941C47.3543 56.3971 44.3265 59.0855 40.6877 59.0855C38.1622 59.0855 35.9762 57.7549 34.7678 55.6096C34.3197 59.6965 33.6816 65.1412 33.5458 66.4175C33.3828 68.0332 33.8716 69.6626 34.9036 70.9117L37.7549 74.3469C37.7549 74.3469 38.4745 89.9884 34.3333 98.1351C14.6727 91.1969 0.674092 72.3238 0.999957 50.2328C1.42087 22.8601 24.1364 0.728415 51.5091 0.99997C78.8818 1.27152 101 23.5526 101 50.9932ZM44.7067 51.8893C44.6795 51.2104 44.1771 50.6266 43.2131 50.1242C42.412 49.7033 41.5295 49.4996 40.6334 49.4996C39.7508 49.4996 38.8683 49.7033 38.0536 50.1242C37.6327 50.3414 37.3204 50.5994 37.1303 50.9117C36.9402 51.2104 36.8452 51.5499 36.8452 51.9572C36.8452 52.4596 36.9131 53.2199 37.0624 53.668C37.5919 55.2973 38.9633 56.0305 40.6334 56.0305C42.5071 56.0305 44.0957 54.7542 44.5573 53.0163C44.5573 53.0163 44.7474 52.4188 44.7067 51.8893ZM66.9334 51.8757C66.9334 51.4548 66.8384 51.1154 66.6347 50.8031C66.4446 50.518 66.1323 50.26 65.725 50.0427C64.9239 49.6218 64.0414 49.4182 63.1724 49.4182C62.2898 49.4182 61.4209 49.6218 60.6198 50.0427C59.6286 50.5587 59.1398 51.1697 59.1398 51.8622C59.1398 54.0889 60.9592 55.9083 63.186 55.9083C64.8832 55.9083 66.2817 54.8221 66.7705 53.1385C66.8791 52.7447 66.9334 52.3102 66.9334 51.8757ZM45.5892 27.2729V26.1188C45.5757 26.1188 45.5892 11.2783 45.5892 11.2783C45.5892 11.1154 45.4127 11.0203 45.2769 11.1018C43.5118 12.2016 37.2661 16.2478 37.6055 27.1371C37.687 29.5539 35.7182 28.5899 34.8764 26.6076C33.6137 23.6341 31.2511 25.2498 30.1649 24.3944C29.0787 23.539 28.7393 22.2084 29.7847 20.7013C25.3448 20.4976 25.1683 24.7746 25.8065 27.0964C26.8791 31.0068 21.5295 30.8846 24.9647 35.0258C26.7841 37.2118 25.5485 38.0129 25.0325 39.4793C23.5661 43.6205 29.6897 42.1541 29.3095 44.8832C28.6985 49.1738 32.8262 48.9158 36.3021 47.1643C38.7189 45.9423 41.5295 45.7114 44.0414 46.7162C45.2498 47.205 46.0916 47.7617 46.6754 48.3319C46.9063 48.5628 47.2593 48.5628 47.5037 48.3455C48.5492 47.4494 49.9613 46.7977 51.8486 46.7977C53.6408 46.7977 54.9986 47.463 56.0305 48.4134C56.2749 48.6442 56.6551 48.6442 56.8995 48.4134C57.334 47.9789 57.9042 47.5444 58.6646 47.1507C61.3801 45.7386 64.6116 45.7386 67.3272 47.1507C67.6123 47.3 67.8974 47.6531 68.1147 47.6395C68.1147 47.6395 69.133 43.8649 68.7528 41.7332C68.4134 39.8051 66.3632 37.8092 66.4989 37.3883C67.0013 35.9219 67.9789 32.5275 68.1826 28.0468C68.6306 18.298 61.4752 11.8757 59.9137 10.518C59.7915 10.4093 59.5879 10.5044 59.5879 10.6673L59.615 30.3415C59.615 31.9436 58.5695 32.7176 57.4697 31.4412C56.0033 29.744 54.3197 30.6266 52.7175 30.26C51.6585 30.0156 50.7623 28.8072 49.649 28.5356C47.2729 27.9925 45.8336 30.5587 45.5892 27.2729Z" fill="#008DFF"/>
</svg>
