<svg width="32" height="32" viewBox="0 0 32 32" fill="none" xmlns="http://www.w3.org/2000/svg">
<path fill-rule="evenodd" clip-rule="evenodd" d="M14.5 5C14.5 4.44772 14.9477 4 15.5 4H16.5C17.0523 4 17.5 4.44772 17.5 5V21C17.5 21.5523 17.0523 22 16.5 22H15.5C14.9477 22 14.5 21.5523 14.5 21V5ZM9 10C8.44772 10 8 10.4477 8 11V21C8 21.5523 8.44772 22 9 22H10C10.5523 22 11 21.5523 11 21V11C11 10.4477 10.5523 10 10 10H9ZM5 24C4.44772 24 4 24.4477 4 25C4 25.5523 4.44772 26 5 26H27C27.5523 26 28 25.5523 28 25C28 24.4477 27.5523 24 27 24H5ZM22 10C21.4477 10 21 10.4477 21 11V21C21 21.5523 21.4477 22 22 22H23C23.5523 22 24 21.5523 24 21V11C24 10.4477 23.5523 10 23 10H22Z" fill="#008DFF"/>
</svg>
