<svg width="32" height="32" viewBox="0 0 32 32" fill="none" xmlns="http://www.w3.org/2000/svg">
<g clip-path="url(#clip0_23_280)">
<path fill-rule="evenodd" clip-rule="evenodd" d="M6 0C2.68629 0 0 2.68629 0 6V7C0 7.55228 0.447715 8 1 8C1.55228 8 2 7.55228 2 7V6C2 3.79086 3.79086 2 6 2C8.20914 2 10 3.79086 10 6V9L8 9C6.89543 9 6 9.89543 6 11L6 25C6 26.1046 6.89543 27 8 27H24C25.1046 27 26 26.1046 26 25V11C26 9.89543 25.1046 9 24 9H12V6C12 2.68629 9.31371 0 6 0ZM24 25V11L8 11L8 25H24ZM16 15C16.5523 15 17 15.4477 17 16V20C17 20.5523 16.5523 21 16 21C15.4477 21 15 20.5523 15 20V16C15 15.4477 15.4477 15 16 15Z" fill="#008DFF"/>
</g>
<defs>
<clipPath id="clip0_23_280">
<rect width="32" height="32" fill="white"/>
</clipPath>
</defs>
</svg>
