<svg width="32" height="32" viewBox="0 0 32 32" fill="none" xmlns="http://www.w3.org/2000/svg">
<path fill-rule="evenodd" clip-rule="evenodd" d="M8.19374 23.75C10.1865 25.7572 12.9481 27 16 27C19.0519 27 21.8134 25.7572 23.8062 23.75C22.8911 22.607 21.7352 21.6779 20.4196 21.0297C19.0157 20.338 17.469 19.9854 15.904 20.0005C14.339 20.0155 12.7994 20.3976 11.409 21.1161C10.163 21.76 9.06807 22.658 8.19374 23.75ZM3 16C3 8.8203 8.8203 3 16 3C23.1797 3 29 8.8203 29 16C29 23.1797 23.1797 29 16 29C8.8203 29 3 23.1797 3 16ZM16 18C18.2091 18 20 16.2091 20 14C20 11.7909 18.2091 10 16 10C13.7909 10 12 11.7909 12 14C12 16.2091 13.7909 18 16 18Z" fill="#008DFF"/>
</svg>
