<svg width="32" height="32" viewBox="0 0 32 32" fill="none" xmlns="http://www.w3.org/2000/svg">
<path fill-rule="evenodd" clip-rule="evenodd" d="M24.7065 8.70711C25.097 8.31658 25.097 7.68342 24.7065 7.29289C24.316 6.90237 23.6828 6.90237 23.2923 7.29289L15.9997 14.5855L8.70711 7.29289C8.31658 6.90237 7.68342 6.90237 7.29289 7.29289C6.90237 7.68342 6.90237 8.31658 7.29289 8.70711L14.5855 15.9997L7.29289 23.2923C6.90237 23.6828 6.90237 24.316 7.29289 24.7065C7.68342 25.097 8.31658 25.097 8.70711 24.7065L15.9997 17.4139L23.2923 24.7065C23.6828 25.097 24.316 25.097 24.7065 24.7065C25.097 24.316 25.097 23.6828 24.7065 23.2923L17.4139 15.9997L24.7065 8.70711Z" fill="#38376B"/>
</svg>
