<svg width="32" height="32" viewBox="0 0 32 32" fill="none" xmlns="http://www.w3.org/2000/svg">
<path fill-rule="evenodd" clip-rule="evenodd" d="M6.69231 11.1818C6.69231 6.0965 10.874 2 16 2C21.126 2 25.3077 6.0965 25.3077 11.1818V13.4176C25.3077 16.1201 26.3146 18.731 28.1413 20.7549C28.6931 21.3663 29 22.1586 29 22.9819V23C29 23.5523 28.5523 24 28 24H4C3.44772 24 3 23.5523 3 23V22.9819C3 22.1586 3.30694 21.3663 3.85873 20.7549C5.68542 18.731 6.69231 16.1201 6.69231 13.4176V11.1818Z" fill="#008DFF"/>
<path fill-rule="evenodd" clip-rule="evenodd" d="M12.691 26.1224C13 26 14 26 14 26C14 26 14 26 14 26L18 26C18 26 18 26 18 26C18 26 19 26 19.2966 26.1157C19.7286 26.3433 19.9397 26.8592 19.7721 27.3332C19.2235 28.8855 17.7432 30 16 30C14.2568 30 12.7765 28.8855 12.2279 27.3332C12.062 26.8638 12.2674 26.3533 12.691 26.1224Z" fill="#008DFF"/>
</svg>
