<svg width="32" height="32" viewBox="0 0 32 32" fill="none" xmlns="http://www.w3.org/2000/svg">
<path fill-rule="evenodd" clip-rule="evenodd" d="M12 3C12 2.44772 12.4477 2 13 2H19C19.5523 2 20 2.44772 20 3V4.68311C20.4033 4.82567 20.7967 4.98915 21.1789 5.17223L22.5345 3.79778C22.7224 3.60726 22.9789 3.5 23.2465 3.5C23.5141 3.5 23.7705 3.60726 23.9584 3.79778L28.212 8.11028C28.596 8.49966 28.596 9.12534 28.212 9.51473L26.8589 10.8866C27.0294 11.2481 27.1825 11.6197 27.3169 12H29C29.5523 12 30 12.4477 30 13V19C30 19.5523 29.5523 20 29 20H27.3169C27.1558 20.4558 26.968 20.8988 26.7554 21.3273L27.8975 22.4853C28.2815 22.8747 28.2815 23.5003 27.8975 23.8897L23.6439 28.2022C23.456 28.3927 23.1996 28.5 22.932 28.5C22.6644 28.5 22.4079 28.3927 22.22 28.2022L20.9635 26.9283C20.6494 27.0712 20.328 27.201 20 27.3169V29C20 29.5523 19.5523 30 19 30H13C12.4477 30 12 29.5523 12 29V27.3169C11.672 27.201 11.3506 27.0712 11.0365 26.9283L9.77997 28.2022C9.59205 28.3927 9.33561 28.5 9.06801 28.5C8.80041 28.5 8.54397 28.3927 8.35605 28.2022L4.10252 23.8897C3.71846 23.5003 3.71846 22.8747 4.10252 22.4853L5.24463 21.3273C5.03201 20.8988 4.84421 20.4558 4.68311 20H3C2.44772 20 2 19.5523 2 19V13C2 12.4477 2.44772 12 3 12H4.68311C4.81755 11.6197 4.97059 11.2481 5.14113 10.8866L3.78804 9.51472C3.40399 9.12534 3.40399 8.49966 3.78804 8.11028L8.04158 3.79778C8.2295 3.60726 8.48593 3.5 8.75354 3.5C9.02114 3.5 9.27758 3.60726 9.46549 3.79778L10.8211 5.17223C11.2033 4.98915 11.5967 4.82567 12 4.68311V3ZM16 13C14.3431 13 13 14.3431 13 16C13 17.6569 14.3431 19 16 19C17.6569 19 19 17.6569 19 16C19 14.3431 17.6569 13 16 13ZM8 16C8 11.5817 11.5817 8 16 8C20.4183 8 24 11.5817 24 16C24 20.4183 20.4183 24 16 24C11.5817 24 8 20.4183 8 16ZM16 6C10.4772 6 6 10.4772 6 16C6 21.5228 10.4772 26 16 26C21.5228 26 26 21.5228 26 16C26 10.4772 21.5228 6 16 6Z" fill="#008DFF"/>
</svg>
