<svg width="32" height="32" viewBox="0 0 32 32" fill="none" xmlns="http://www.w3.org/2000/svg">
<path fill-rule="evenodd" clip-rule="evenodd" d="M6 16C6 10.4772 10.4772 6 16 6C21.5228 6 26 10.4772 26 16C26 21.5228 21.5228 26 16 26C10.4772 26 6 21.5228 6 16ZM16 4C9.37258 4 4 9.37258 4 16C4 22.6274 9.37258 28 16 28C22.6274 28 28 22.6274 28 16C28 9.37258 22.6274 4 16 4ZM11 17C10.4477 17 10 17.4477 10 18C10 18.7879 10.1552 19.5681 10.4567 20.2961C10.7583 21.0241 11.2002 21.6855 11.7574 22.2426C12.3145 22.7998 12.9759 23.2417 13.7039 23.5433C14.4319 23.8448 15.2121 24 16 24C16.7879 24 17.5681 23.8448 18.2961 23.5433C19.0241 23.2417 19.6855 22.7998 20.2426 22.2426C20.7998 21.6855 21.2417 21.0241 21.5433 20.2961C21.8448 19.5681 22 18.7879 22 18C22 17.4477 21.5523 17 21 17H16H11ZM12.3045 19.5307C12.2329 19.3578 12.1736 19.1804 12.127 19H16H19.873C19.8264 19.1804 19.7671 19.3578 19.6955 19.5307C19.4945 20.016 19.1999 20.457 18.8284 20.8284C18.457 21.1999 18.016 21.4945 17.5307 21.6955C17.0454 21.8965 16.5253 22 16 22C15.4747 22 14.9546 21.8965 14.4693 21.6955C13.984 21.4945 13.543 21.1999 13.1716 20.8284C12.8001 20.457 12.5055 20.016 12.3045 19.5307ZM14 13C14 14.1046 13.1046 15 12 15C10.8954 15 10 14.1046 10 13C10 11.8954 10.8954 11 12 11C13.1046 11 14 11.8954 14 13ZM20 15C21.1046 15 22 14.1046 22 13C22 11.8954 21.1046 11 20 11C18.8954 11 18 11.8954 18 13C18 14.1046 18.8954 15 20 15Z" fill="#008DFF"/>
</svg>
