<svg width="32" height="32" viewBox="0 0 32 32" fill="none" xmlns="http://www.w3.org/2000/svg">
<path fill-rule="evenodd" clip-rule="evenodd" d="M4.00003 16C4.00003 9.37258 9.37261 4 16 4C22.6274 4 28 9.37258 28 16C28 22.6274 22.6274 28 16 28C14.1708 28 12.4348 27.59 10.8812 26.8563L3.37866 29.9255C3.0047 30.0785 2.57541 29.9914 2.29064 29.7048C2.00586 29.4182 1.92155 28.9883 2.07695 28.6154L5.174 21.1825C4.4213 19.6127 4.00003 17.8543 4.00003 16ZM16 6C10.4772 6 6.00003 10.4772 6.00003 16C6.00003 17.6907 6.4188 19.2807 7.15745 20.6747C7.29738 20.9388 7.31185 21.2516 7.1969 21.5275L4.84865 27.1633L10.5422 24.8341C10.8146 24.7227 11.1222 24.7369 11.3832 24.873C12.7633 25.5927 14.3326 26 16 26C21.5229 26 26 21.5228 26 16C26 10.4772 21.5229 6 16 6Z" fill="#616575"/>
</svg>
