<svg width="32" height="32" viewBox="0 0 32 32" fill="none" xmlns="http://www.w3.org/2000/svg">
<path fill-rule="evenodd" clip-rule="evenodd" d="M17 4C12.0294 4 8 8.02944 8 13C8 15.9319 9.40191 18.5363 11.572 20.1795C11.5906 20.1925 11.6089 20.2063 11.6268 20.2207C13.1264 21.3384 14.9859 22 17 22C21.9706 22 26 17.9706 26 13C26 8.02944 21.9706 4 17 4ZM11.1176 22.2967C12.8188 23.3754 14.8365 24 17 24C23.0751 24 28 19.0751 28 13C28 6.92487 23.0751 2 17 2C10.9249 2 6 6.92487 6 13C6 16.1866 7.35497 19.0567 9.5202 21.0656L2.29289 28.2929C1.90237 28.6834 1.90237 29.3166 2.29289 29.7071C2.68342 30.0976 3.31658 30.0976 3.70711 29.7071L11.1176 22.2967ZM16 8C16 7.44772 16.4477 7 17 7C17.7879 7 18.5681 7.15519 19.2961 7.45672C20.0241 7.75825 20.6855 8.20021 21.2426 8.75736C21.7998 9.31451 22.2417 9.97595 22.5433 10.7039C22.8448 11.4319 23 12.2121 23 13C23 13.5523 22.5523 14 22 14C21.4477 14 21 13.5523 21 13C21 12.4747 20.8965 11.9546 20.6955 11.4693C20.4945 10.984 20.1999 10.543 19.8284 10.1716C19.457 9.80014 19.016 9.5055 18.5307 9.30448C18.0454 9.10346 17.5253 9 17 9C16.4477 9 16 8.55228 16 8Z" fill="#38376B"/>
</svg>
