<svg width="32" height="32" viewBox="0 0 32 32" fill="none" xmlns="http://www.w3.org/2000/svg">
<path fill-rule="evenodd" clip-rule="evenodd" d="M17 4.5C12.3056 4.5 8.5 8.30558 8.5 13C8.5 15.7655 9.82071 18.2226 11.8658 19.7748C11.8885 19.7909 11.9108 19.8076 11.9327 19.8251C13.3477 20.8774 15.1011 21.5 17 21.5C21.6944 21.5 25.5 17.6944 25.5 13C25.5 8.30558 21.6944 4.5 17 4.5ZM11.193 22.9283C12.8973 23.9273 14.8818 24.5 17 24.5C23.3513 24.5 28.5 19.3513 28.5 13C28.5 6.64873 23.3513 1.5 17 1.5C10.6487 1.5 5.5 6.64873 5.5 13C5.5 16.1448 6.76229 18.9947 8.80784 21.0708L2.43934 27.4393C1.85355 28.0251 1.85355 28.9749 2.43934 29.5607C3.02513 30.1464 3.97487 30.1464 4.56066 29.5607L11.193 22.9283ZM16.011 7.87439C16.0944 7.05017 16.8302 6.44962 17.6544 6.53303C19.1465 6.68402 20.5406 7.34635 21.6001 8.40775C22.6597 9.46914 23.3197 10.8643 23.4681 12.3567C23.5501 13.181 22.9483 13.9158 22.1239 13.9978C21.2995 14.0798 20.5648 13.478 20.4828 12.6536C20.4029 11.85 20.0475 11.0988 19.477 10.5272C18.9065 9.95573 18.1558 9.59909 17.3524 9.51778C16.5282 9.43438 15.9276 8.69861 16.011 7.87439Z" fill="#008DFF"/>
</svg>
