<svg width="32" height="32" viewBox="0 0 32 32" fill="none" xmlns="http://www.w3.org/2000/svg">
<path fill-rule="evenodd" clip-rule="evenodd" d="M18.5696 27.7242C23.1344 26.7284 26.7283 23.1344 27.7242 18.5697C27.1908 18.899 26.5542 19.2612 25.8252 19.623C24.5806 20.2407 23.0584 20.8612 21.3132 21.3132C20.8611 23.0584 20.2406 24.5807 19.623 25.8252C19.2611 26.5543 18.8989 27.1908 18.5696 27.7242ZM27.9999 15.9691C27.9947 13.8815 27.4563 11.9192 26.5139 10.2111C25.1633 10.8786 23.5163 11.593 21.6361 12.1316C21.8631 13.3384 21.9999 14.6329 21.9999 16C21.9999 17.0832 21.914 18.1207 21.7654 19.1052C22.9605 18.7333 24.0257 18.2833 24.9361 17.8315C26.0318 17.2877 26.8956 16.745 27.4816 16.3412C27.6909 16.1971 27.8644 16.0709 27.9999 15.9691ZM25.3921 8.53018C23.7034 6.4097 21.3117 4.87398 18.5696 4.27576C18.8989 4.80917 19.2611 5.4457 19.623 6.17477C20.1807 7.29857 20.7407 8.64883 21.177 10.1852C22.7639 9.72265 24.1797 9.11974 25.3921 8.53018ZM13.4302 27.7242C13.1009 27.1908 12.7387 26.5543 12.3769 25.8252C11.7593 24.5807 11.1388 23.0584 10.6867 21.3132C8.9415 20.8611 7.41923 20.2407 6.17471 19.623C5.44565 19.2612 4.80914 18.899 4.27574 18.5697C5.27163 23.1344 8.86551 26.7283 13.4302 27.7242ZM4 15.9692C4.13554 16.071 4.30898 16.1971 4.51822 16.3412C5.10428 16.745 5.96811 17.2877 7.0638 17.8315C7.97413 18.2833 9.0394 18.7333 10.2344 19.1052C10.0859 18.1207 9.99993 17.0832 9.99993 16C9.99993 14.6846 10.1266 13.4365 10.3384 12.269C8.44573 11.7606 6.77279 11.0587 5.38362 10.4008C4.50466 12.0639 4.00505 13.9584 4 15.9692ZM6.47502 8.69999C7.73454 9.28796 9.18012 9.8833 10.7848 10.3209C11.2263 8.72828 11.8028 7.33155 12.3769 6.17477C12.7387 5.4457 13.1009 4.80918 13.4302 4.27578C10.6155 4.88986 8.16997 6.49176 6.47502 8.69999ZM11.9999 16C11.9999 14.8417 12.1089 13.7387 12.2926 12.7024C13.3651 12.8891 14.4929 13 15.6666 13C17.0797 13 18.4256 12.8493 19.6891 12.6017C19.8837 13.6671 19.9999 14.8041 19.9999 16C19.9999 17.2879 19.8652 18.5074 19.6428 19.6429C18.5073 19.8652 17.2878 20 15.9999 20C14.712 20 13.4925 19.8652 12.357 19.6429C12.1347 18.5074 11.9999 17.2879 11.9999 16ZM15.6666 11C14.6507 11 13.6741 10.9088 12.7408 10.7525C13.1386 9.34581 13.6523 8.10374 14.1684 7.06386C14.7122 5.96817 15.255 5.10434 15.6587 4.51828C15.7886 4.32968 15.9039 4.17016 15.9999 4.04126C16.0959 4.17016 16.2113 4.32968 16.3412 4.51828C16.7449 5.10434 17.2877 5.96817 17.8314 7.06386C18.3356 8.07982 18.8376 9.28876 19.2314 10.6557C18.1079 10.8708 16.9166 11 15.6666 11ZM15.9999 27.9587C15.9039 27.8298 15.7886 27.6703 15.6587 27.4817C15.255 26.8957 14.7122 26.0318 14.1684 24.9361C13.7166 24.0258 13.2667 22.9605 12.8947 21.7655C13.8792 21.9141 14.9167 22 15.9999 22C17.0831 22 18.1207 21.9141 19.1052 21.7655C18.7332 22.9605 18.2832 24.0258 17.8314 24.9361C17.2877 26.0318 16.7449 26.8957 16.3412 27.4817C16.2113 27.6703 16.0959 27.8298 15.9999 27.9587Z" fill="#008DFF"/>
</svg>
