<svg width="32" height="32" viewBox="0 0 32 32" fill="none" xmlns="http://www.w3.org/2000/svg">
<path d="M17 25H8C7.44771 25 7 24.5523 7 24L7 8.41421L9.2929 10.7071C9.68342 11.0976 10.3166 11.0976 10.7071 10.7071C11.0976 10.3166 11.0976 9.68342 10.7071 9.2929L6.70711 5.29289C6.31658 4.90237 5.68342 4.90237 5.29289 5.29289L1.29289 9.29289C0.902369 9.68342 0.902369 10.3166 1.29289 10.7071C1.68342 11.0976 2.31658 11.0976 2.70711 10.7071L5 8.41422L5 24C5 25.6569 6.34314 27 8 27H17C17.5523 27 18 26.5523 18 26C18 25.4477 17.5523 25 17 25Z" fill="#616575"/>
<path d="M15 5C14.4477 5 14 5.44772 14 6C14 6.55229 14.4477 7 15 7H24C24.5523 7 25 7.44772 25 8V23.5858L22.7071 21.2929C22.3166 20.9024 21.6834 20.9024 21.2929 21.2929C20.9024 21.6834 20.9024 22.3166 21.2929 22.7071L25.2929 26.7071C25.6834 27.0976 26.3166 27.0976 26.7071 26.7071L30.7071 22.7071C31.0976 22.3166 31.0976 21.6834 30.7071 21.2929C30.3166 20.9024 29.6834 20.9024 29.2929 21.2929L27 23.5858V8C27 6.34315 25.6569 5 24 5H15Z" fill="#616575"/>
</svg>
