<svg width="32" height="32" viewBox="0 0 32 32" fill="none" xmlns="http://www.w3.org/2000/svg">
<path fill-rule="evenodd" clip-rule="evenodd" d="M16 0C12.6863 0 10 2.68629 10 6V9L8 9C6.89543 9 6 9.89543 6 11V25C6 26.1046 6.89543 27 8 27H24C25.1046 27 26 26.1046 26 25V11C26 9.89543 25.1046 9 24 9H22V6C22 2.68629 19.3137 0 16 0ZM20 9V6C20 3.79086 18.2091 2 16 2C13.7909 2 12 3.79086 12 6V9H20ZM24 25V11L8 11L8 25H24ZM16 15C16.5523 15 17 15.4477 17 16V20C17 20.5523 16.5523 21 16 21C15.4477 21 15 20.5523 15 20V16C15 15.4477 15.4477 15 16 15Z" fill="#008DFF"/>
</svg>
