<svg width="32" height="32" viewBox="0 0 32 32" fill="none" xmlns="http://www.w3.org/2000/svg">
<path fill-rule="evenodd" clip-rule="evenodd" d="M7.20647 11.2343C6.43704 12.651 6 14.2745 6 16C6 16.5087 6.03799 17.0086 6.11129 17.4969C6.16339 17.5258 6.21899 17.5561 6.27801 17.5878C6.77016 17.8523 7.49823 18.2093 8.4235 18.5674C9.23243 18.8806 10.1887 19.1933 11.2672 19.4463C11.1012 18.3757 11 17.2219 11 16C11 14.7567 11.1048 13.584 11.2759 12.4977C9.66915 12.1552 8.29208 11.6839 7.20647 11.2343ZM8.36303 9.54392C9.28231 9.90304 10.3982 10.2644 11.6723 10.5372C11.9368 9.46794 12.2523 8.51566 12.5674 7.7015C12.7503 7.22908 12.9335 6.80218 13.1071 6.42483C11.2351 6.98963 9.59477 8.08835 8.36303 9.54392ZM13.2483 12.8296C13.0941 13.8148 13 14.8764 13 16C13 17.3782 13.1416 18.663 13.362 19.828C14.194 19.9364 15.076 20 16 20C16.924 20 17.806 19.9364 18.638 19.828C18.8584 18.663 19 17.3782 19 16C19 14.8764 18.9059 13.8148 18.7517 12.8296C17.8814 12.9373 16.9617 13 16 13C15.0382 13 14.1186 12.9373 13.2483 12.8296ZM18.3476 10.8637C17.6017 10.9502 16.8173 11 16 11C15.1827 11 14.3983 10.9502 13.6524 10.8637C13.8858 9.94907 14.1591 9.13008 14.4326 8.4235C14.7907 7.49823 15.1477 6.77016 15.4121 6.27801C15.4655 6.17872 15.515 6.08911 15.56 6.00951C15.7059 6.00319 15.8526 6 16 6C16.1474 6 16.2941 6.00319 16.44 6.00951C16.485 6.08911 16.5345 6.17872 16.5879 6.27801C16.8523 6.77016 17.2093 7.49823 17.5674 8.4235C17.8409 9.13008 18.1142 9.94906 18.3476 10.8637ZM20.7241 12.4977C20.8952 13.5841 21 14.7567 21 16C21 17.2219 20.8988 18.3757 20.7328 19.4463C21.8113 19.1933 22.7676 18.8806 23.5765 18.5674C24.5018 18.2093 25.2298 17.8523 25.722 17.5878C25.781 17.5561 25.8366 17.5258 25.8887 17.4969C25.962 17.0086 26 16.5087 26 16C26 14.2745 25.563 12.651 24.7935 11.2343C23.7072 11.6842 22.3302 12.1554 20.7241 12.4977ZM23.637 9.54392C22.7182 9.90284 21.6022 10.2643 20.3277 10.5372C20.0632 9.46794 19.7477 8.51566 19.4326 7.7015C19.2497 7.22908 19.0665 6.80218 18.8929 6.42483C20.7649 6.98963 22.4052 8.08835 23.637 9.54392ZM25.5205 8.69425C23.3268 5.83981 19.8783 4 16 4C9.37258 4 4 9.37258 4 16C4 22.6274 9.37258 28 16 28C22.6274 28 28 22.6274 28 16C28 13.2928 27.1036 10.7951 25.5913 8.78731L25.5381 8.68511C25.5323 8.68815 25.5264 8.69119 25.5205 8.69425ZM16 22C16.7389 22 17.4528 21.963 18.1385 21.897C17.9579 22.5101 17.7627 23.072 17.5674 23.5765C17.2093 24.5018 16.8523 25.2298 16.5878 25.722C16.5345 25.8213 16.485 25.9109 16.44 25.9905C16.2941 25.9968 16.1474 26 16 26C15.8526 26 15.7059 25.9968 15.56 25.9905C15.515 25.9109 15.4655 25.8213 15.4122 25.722C15.1477 25.2298 14.7907 24.5018 14.4326 23.5765C14.2373 23.072 14.0421 22.5101 13.8615 21.897C14.5472 21.963 15.2611 22 16 22ZM19.4326 24.2985C19.2497 24.7709 19.0665 25.1978 18.8929 25.5752C21.6775 24.735 23.9497 22.7134 25.1266 20.0932C24.8689 20.2048 24.5925 20.3188 24.2985 20.4326C23.1992 20.8581 21.8481 21.2842 20.2972 21.5845C20.0392 22.6044 19.7357 23.5154 19.4326 24.2985ZM11.7028 21.5845C10.1519 21.2842 8.80078 20.8581 7.7015 20.4326C7.40751 20.3188 7.13114 20.2048 6.87337 20.0932C8.05033 22.7134 10.3225 24.735 13.1071 25.5752C12.9335 25.1978 12.7503 24.7709 12.5674 24.2985C12.2643 23.5154 11.9608 22.6044 11.7028 21.5845Z" fill="#008DFF"/>
</svg>
