<svg width="85.9px" height="85.9px" viewBox="0 -0.85 85.9 85.9" xmlns="http://www.w3.org/2000/svg">
  <g id="Group_22" data-name="Group 22" transform="translate(-285.1 -673.1)">
    <path id="Path_32" data-name="Path 32" d="M355.6,675.1H300.5a13.465,13.465,0,0,0-13.4,13.4v37.3a13.465,13.465,0,0,0,13.4,13.4h55.1A13.465,13.465,0,0,0,369,725.8V688.5A13.531,13.531,0,0,0,355.6,675.1Z" fill="none" stroke="#2b4ea2" stroke-linecap="round" stroke-miterlimit="10" stroke-width="4"/>
    <line id="Line_10" data-name="Line 10" x2="79.2" transform="translate(288.1 724.5)" fill="none" stroke="#2b4ea2" stroke-linecap="round" stroke-miterlimit="10" stroke-width="4"/>
    <path id="Path_33" data-name="Path 33" d="M334.7,747.6H321.4a3.585,3.585,0,0,1-3.6-3.6v-1.4a3.585,3.585,0,0,1,3.6-3.6h13.3a3.585,3.585,0,0,1,3.6,3.6V744A3.585,3.585,0,0,1,334.7,747.6Z" fill="none" stroke="#2b4ea2" stroke-linecap="round" stroke-miterlimit="10" stroke-width="4"/>
    <path id="Path_34" data-name="Path 34" d="M359,755.3H297a3.9,3.9,0,0,1-3.9-3.9h0a3.9,3.9,0,0,1,3.9-3.9h62a3.9,3.9,0,0,1,3.9,3.9h0A3.842,3.842,0,0,1,359,755.3Z" fill="none" stroke="#2b4ea2" stroke-linecap="round" stroke-miterlimit="10" stroke-width="4"/>
    <line id="Line_11" data-name="Line 11" x1="12" y2="11.9" transform="translate(331 710.8)" fill="none" stroke="#2b4ea2" stroke-linecap="round" stroke-miterlimit="10" stroke-width="4"/>
    <line id="Line_12" data-name="Line 12" x1="11.9" y2="11.9" transform="translate(345.3 706.1)" fill="none" stroke="#2b4ea2" stroke-linecap="round" stroke-miterlimit="10" stroke-width="4"/>
  </g>
</svg>
