<svg width="185" height="40" viewBox="0 0 185 40" fill="none" xmlns="http://www.w3.org/2000/svg">
<path d="M24.7774 31.3863C24.7774 31.6144 24.5981 32.1847 24.3863 32.5051C24.1745 32.8255 23.8975 33.0917 23.5934 33.3035C22.9851 33.7271 22.2573 33.9443 21.5459 33.9498C20.829 33.9661 20.1066 33.776 19.482 33.3849C19.1725 33.184 18.8901 32.9342 18.6619 32.63C18.4393 32.3204 18.2329 31.7502 18.2112 31.5384C18.1894 31.332 18.3144 31.4026 18.3144 31.4026C18.5479 31.5601 19.5798 32.4671 21.4372 32.4671C23.2947 32.4671 24.4515 31.4298 24.6742 31.2505C24.6633 31.256 24.7774 31.1582 24.7774 31.3863ZM25.9885 26.5961C25.8038 26.4331 25.7495 26.6667 25.7115 26.7916C25.7115 26.7916 25.6789 26.8785 25.6192 26.9925C25.5214 27.1609 25.2118 27.666 24.5601 27.8235C22.5941 28.3014 22.0509 27.3401 22.0455 26.5852V26.1073C23.2947 25.89 23.0394 24.8853 23.8541 24.9613C24.2451 24.9993 24.4515 25.1949 24.4786 24.9179C24.5167 24.5757 24.0333 24.2933 23.7835 24.2498C23.11 24.1412 22.7461 24.5214 22.5832 24.6517C22.4203 24.7821 22.2519 24.9016 22.0672 24.9776C21.8826 25.0591 21.6816 25.0862 21.4807 25.0862C21.2797 25.0862 21.0788 25.0591 20.8941 24.9776C20.7095 24.9016 20.5411 24.7821 20.3782 24.6517C20.2152 24.5214 19.8514 24.1412 19.1779 24.2498C18.9281 24.2933 18.4447 24.5757 18.4827 24.9179C18.5153 25.1949 18.7217 24.9993 19.1073 24.9613C19.922 24.8853 19.6667 25.89 20.9158 26.1073V26.5852C20.9104 27.3401 20.3673 28.3014 18.4013 27.8235C17.7495 27.666 17.44 27.1555 17.3422 26.9925C17.277 26.8839 17.2499 26.7916 17.2499 26.7916C17.2118 26.6667 17.1521 26.4331 16.9729 26.5961C16.8154 26.7373 16.647 27.074 16.7828 27.6714C16.8208 27.8452 16.9294 27.9973 17.0326 28.1439C17.6789 29.0455 19.2213 28.9423 19.2431 29.0075C19.3028 29.1813 19.3951 29.3931 19.4983 29.5289C19.6558 29.7461 19.8568 29.9199 20.074 30.0611C20.4542 30.3001 20.8833 30.4304 21.3178 30.4522V30.4576C21.334 30.4576 21.4046 30.4576 21.4753 30.4576C21.5459 30.4576 21.6165 30.4576 21.6328 30.4576V30.4522C22.0672 30.4304 22.5017 30.3001 22.8765 30.0611C23.0937 29.9199 23.2947 29.7461 23.4522 29.5289C23.5499 29.3931 23.6477 29.1813 23.7074 29.0075C23.7292 28.9423 25.2716 29.0455 25.9179 28.1439C26.0211 27.9973 26.1297 27.8452 26.1677 27.6714C26.3144 27.074 26.146 26.7319 25.9885 26.5961ZM41 19.9973C41 28.9749 35.0801 36.573 26.9335 39.1039C27.4495 33.6511 26.9715 29.3442 26.9715 29.3442L28.112 27.9701C28.5302 27.4705 28.7258 26.8188 28.6552 26.1725C28.6008 25.6619 28.3727 23.446 28.1989 21.8004C27.7264 22.6911 26.8412 23.2397 25.8038 23.2397C24.8154 23.2397 23.941 22.7454 23.4142 21.9851C23.2404 21.7352 23.1209 21.4583 23.034 21.165C22.8928 20.6979 22.442 19.6117 21.3449 19.6117C20.4271 19.6117 19.9926 20.1874 19.797 20.6164C19.7916 20.6436 19.7808 20.6653 19.7753 20.6925C19.7699 20.7142 19.7645 20.7359 19.7536 20.7577C19.5418 22.1589 18.3307 23.2342 16.8751 23.2342C15.8649 23.2342 14.9905 22.702 14.5072 21.8439C14.3279 23.4786 14.0727 25.6565 14.0184 26.167C13.9532 26.8133 14.1487 27.4651 14.5615 27.9647L15.702 29.3388C15.702 29.3388 15.9898 35.5954 14.3334 38.8541C6.46914 36.0788 0.869686 28.5295 1.00003 19.6932C1.1684 8.74407 10.2546 -0.108609 21.2037 1.24427e-05C32.1528 0.108634 41 9.02106 41 19.9973ZM18.4827 20.3558C18.4719 20.0842 18.2709 19.8507 17.8853 19.6497C17.5649 19.4813 17.2118 19.3999 16.8534 19.3999C16.5004 19.3999 16.1474 19.4813 15.8215 19.6497C15.6531 19.7366 15.5282 19.8398 15.4522 19.9647C15.3761 20.0842 15.3381 20.22 15.3381 20.3829C15.3381 20.5839 15.3653 20.888 15.425 21.0672C15.6368 21.719 16.1854 22.0122 16.8534 22.0122C17.6029 22.0122 18.2383 21.5017 18.423 20.8065C18.423 20.8065 18.499 20.5676 18.4827 20.3558ZM27.3734 20.3503C27.3734 20.182 27.3354 20.0462 27.2539 19.9213C27.1779 19.8072 27.053 19.704 26.8901 19.6171C26.5696 19.4488 26.2166 19.3673 25.869 19.3673C25.516 19.3673 25.1684 19.4488 24.848 19.6171C24.4515 19.8235 24.256 20.0679 24.256 20.3449C24.256 21.2356 24.9837 21.9634 25.8744 21.9634C26.5533 21.9634 27.1127 21.5289 27.3082 20.8554C27.3517 20.6979 27.3734 20.5241 27.3734 20.3503ZM18.8357 10.5092V10.0475C18.8303 10.0475 18.8357 4.11135 18.8357 4.11135C18.8357 4.04618 18.7651 4.00816 18.7108 4.04075C18.0048 4.48066 15.5065 6.09913 15.6423 10.4549C15.6748 11.4216 14.8873 11.036 14.5506 10.2431C14.0455 9.05365 13.1005 9.69995 12.666 9.35779C12.2315 9.01563 12.0958 8.48338 12.5139 7.88053C10.738 7.79906 10.6674 9.50986 10.9226 10.4386C11.3517 12.0027 9.21184 11.9538 10.5859 13.6103C11.3137 14.4847 10.8194 14.8052 10.6131 15.3917C10.0265 17.0482 12.4759 16.4617 12.3239 17.5533C12.0795 19.2695 13.7305 19.1663 15.1209 18.4657C16.0876 17.9769 17.2118 17.8846 18.2166 18.2865C18.7 18.482 19.0367 18.7047 19.2702 18.9328C19.3626 19.0251 19.5038 19.0251 19.6015 18.9382C20.0197 18.5798 20.5846 18.3191 21.3395 18.3191C22.0564 18.3191 22.5995 18.5852 23.0123 18.9654C23.11 19.0577 23.2621 19.0577 23.3598 18.9654C23.5336 18.7916 23.7617 18.6178 24.0659 18.4603C25.1521 17.8955 26.4447 17.8955 27.5309 18.4603C27.645 18.52 27.759 18.6612 27.8459 18.6558C27.8459 18.6558 28.2533 17.146 28.1012 16.2933C27.9654 15.5221 27.1453 14.7237 27.1996 14.5553C27.4006 13.9688 27.7916 12.611 27.8731 10.8188C28.0523 6.91923 25.1901 4.35032 24.5655 3.80721C24.5167 3.76376 24.4352 3.80178 24.4352 3.86695L24.4461 11.7366C24.4461 12.3775 24.0279 12.687 23.5879 12.1765C23.0014 11.4976 22.3279 11.8507 21.6871 11.704C21.2634 11.6063 20.905 11.1229 20.4596 11.0143C19.5092 10.797 18.9335 11.8235 18.8357 10.5092Z" fill="#008DFF"/>
<path d="M136.374 15.1535C135.039 15.1535 133.808 15.6471 132.961 16.5079V11.4118C132.961 10.5854 132.415 10 131.672 10C130.929 10 130.383 10.5968 130.383 11.4118V27.6758C130.383 28.4907 130.929 29.0875 131.672 29.0875C132.357 29.0875 132.879 28.5825 132.961 27.8709C133.82 28.7317 135.039 29.2367 136.386 29.2367C139.788 29.2367 142.168 26.3443 142.168 22.2009C142.157 18.0459 139.777 15.1535 136.374 15.1535ZM136.235 17.6557C138.232 17.6557 139.568 19.4806 139.568 22.1894C139.568 24.8981 138.232 26.7231 136.235 26.7231C134.273 26.7231 132.903 24.8637 132.903 22.1894C132.903 19.5151 134.273 17.6557 136.235 17.6557Z" fill="#008DFF"/>
<path d="M147.916 26.5854C147.765 26.5854 147.289 26.5854 147.289 25.2999V11.4118C147.289 10.5854 146.743 10 146 10C145.257 10 144.711 10.5968 144.711 11.4118V25.2999C144.711 27.7446 145.849 29.0875 147.928 29.0875C148.729 29.0875 149.333 28.5481 149.333 27.8365C149.321 27.1248 148.706 26.5854 147.916 26.5854Z" fill="#008DFF"/>
<path d="M161.095 15.2913C160.34 15.2913 159.806 15.8881 159.806 16.703V23.1191C159.806 25.1392 158.482 26.7116 156.775 26.7116C154.894 26.7116 153.942 25.4606 153.942 23.0043V16.6915C153.942 15.8651 153.397 15.2798 152.653 15.2798C151.91 15.2798 151.365 15.8766 151.365 16.6915V23.0847C151.365 26.9756 153.292 29.2138 156.648 29.2138C157.913 29.2138 159.005 28.7547 159.829 27.8709C159.91 28.5825 160.433 29.0761 161.106 29.0761C161.861 29.0761 162.395 28.4792 162.395 27.6643V16.703C162.384 15.8881 161.838 15.2913 161.095 15.2913Z" fill="#008DFF"/>
<path d="M176.735 22.1894C176.735 18.0459 174.297 15.1535 170.813 15.1535C167.342 15.1535 164.926 18.0459 164.926 22.1894C164.926 25.6901 166.842 29.2253 171.127 29.2253C172.636 29.2253 174.03 28.7202 175.051 27.802C175.307 27.5725 175.655 27.2052 175.655 26.5968C175.655 25.8852 175.168 25.4032 174.448 25.4032C173.96 25.4032 173.577 25.6786 173.252 25.977C172.683 26.4821 171.963 26.7346 171.104 26.7346C168.944 26.7346 167.922 25.1047 167.643 23.4749H175.446C176.213 23.4634 176.735 22.9584 176.735 22.1894ZM170.813 17.6557C172.497 17.6557 173.716 18.9182 174.053 20.9613H167.609C167.934 18.8838 169.118 17.6557 170.813 17.6557Z" fill="#008DFF"/>
<path d="M60.3209 26.5854C60.17 26.5854 59.6939 26.5854 59.6939 25.2999V20.066C59.6939 16.9899 57.7897 15.1535 54.6082 15.1535C52.9478 15.1535 51.5312 15.6585 50.4978 16.6112C50.2192 16.8981 49.9521 17.2195 49.9521 17.7819C49.9521 18.4935 50.4398 18.9756 51.1597 18.9756C51.5777 18.9756 51.868 18.8034 52.0886 18.6427C52.1699 18.5739 52.2511 18.505 52.344 18.4361C52.762 18.0689 53.2497 17.6557 54.4457 17.6557C56.2106 17.6557 57.1046 18.4935 57.1046 20.1463V20.571H55.5371C51.1945 20.5825 49 22.0402 49 24.9211C49 27.5036 50.8926 29.2252 53.7258 29.2252C55.363 29.2252 56.7099 28.6284 57.5691 27.538C58.0916 28.571 59.0205 29.0875 60.3326 29.0875C61.1337 29.0875 61.7375 28.5481 61.7375 27.8364C61.7375 27.1248 61.1221 26.5854 60.3209 26.5854ZM53.807 26.7231C52.4369 26.7231 51.6125 26.0574 51.6125 24.944C51.6125 23.2224 53.6329 23.0846 55.5255 23.0846H57.1046V23.1306C57.1046 25.2769 55.781 26.7231 53.807 26.7231Z" fill="#008DFF"/>
<path d="M66.9858 26.5854C66.8349 26.5854 66.3588 26.5854 66.3588 25.2999V11.4118C66.3588 10.5854 65.8131 10 65.07 10C64.3268 10 63.7811 10.5968 63.7811 11.4118V25.2999C63.7811 27.7446 64.919 29.0875 66.9974 29.0875C67.7986 29.0875 68.4024 28.5481 68.4024 27.8365C68.3908 27.1248 67.787 26.5854 66.9858 26.5854Z" fill="#008DFF"/>
<path d="M76.5767 15.1535C75.2298 15.1535 74.0106 15.6471 73.1514 16.5194C73.0701 15.7963 72.5592 15.3027 71.8741 15.3027C71.1194 15.3027 70.5853 15.8996 70.5853 16.7145V32.5882C70.5853 33.4032 71.131 34 71.8741 34C72.6172 34 73.163 33.4032 73.163 32.5882V27.8938C74.0222 28.7547 75.2414 29.2482 76.5767 29.2482C79.9788 29.2482 82.3591 26.3558 82.3591 22.2123C82.3474 18.0459 79.9788 15.1535 76.5767 15.1535ZM76.4373 17.6557C78.4345 17.6557 79.7698 19.4806 79.7698 22.1894C79.7698 24.8981 78.4345 26.7231 76.4373 26.7231C74.475 26.7231 73.1049 24.8637 73.1049 22.1894C73.1049 19.5151 74.475 17.6557 76.4373 17.6557Z" fill="#008DFF"/>
<path d="M95.3869 26.5854C95.2359 26.5854 94.7598 26.5854 94.7598 25.2999V20.066C94.7598 16.9899 92.8556 15.1535 89.6741 15.1535C88.0137 15.1535 86.5971 15.6585 85.5638 16.6112C85.2851 16.8866 85.0064 17.208 85.0064 17.7819C85.0064 18.4935 85.4941 18.9756 86.214 18.9756C86.632 18.9756 86.9223 18.8034 87.1429 18.6427C87.2242 18.5739 87.3054 18.505 87.3983 18.4361C87.8163 18.0689 88.304 17.6557 89.5 17.6557C91.2649 17.6557 92.1589 18.4935 92.1589 20.1463V20.571H90.5798C86.2488 20.571 84.0427 22.0287 84.0427 24.9096C84.0427 27.4921 85.9353 29.2138 88.7685 29.2138C90.4056 29.2138 91.7525 28.6169 92.6118 27.5265C93.1343 28.5595 94.0632 29.076 95.3752 29.076C96.1764 29.076 96.7802 28.5366 96.7802 27.825C96.7918 27.1248 96.188 26.5854 95.3869 26.5854ZM88.8613 26.7231C87.4912 26.7231 86.6668 26.0574 86.6668 24.944C86.6668 23.2224 88.6872 23.0846 90.5798 23.0846H92.1589V23.1306C92.1705 25.2769 90.8353 26.7231 88.8613 26.7231Z" fill="#008DFF"/>
<path d="M104.188 17.6557C105.233 17.6557 105.918 18.0689 106.301 18.4132C106.627 18.7116 107.01 18.9871 107.497 18.9871C108.206 18.9871 108.705 18.4935 108.705 17.7934C108.705 17.1851 108.368 16.8178 108.113 16.5882C107.091 15.67 105.698 15.165 104.188 15.165C100.542 15.165 97.9878 18.0574 97.9878 22.2009C97.9878 26.3443 100.542 29.2367 104.188 29.2367C105.698 29.2367 107.091 28.7317 108.113 27.8135C108.368 27.5839 108.717 27.2167 108.717 26.6083C108.717 25.8967 108.229 25.4146 107.509 25.4146C107.021 25.4146 106.638 25.6901 106.313 25.9885C105.93 26.3329 105.245 26.7461 104.188 26.7461C101.692 26.7461 100.577 24.4735 100.577 22.2123C100.577 19.9512 101.692 17.6557 104.188 17.6557Z" fill="#008DFF"/>
<path d="M121.628 26.5854C121.477 26.5854 121.001 26.5854 121.001 25.2999V20.066C121.001 16.9899 119.097 15.1535 115.916 15.1535C114.255 15.1535 112.839 15.6585 111.805 16.6112C111.526 16.8866 111.248 17.208 111.248 17.7819C111.248 18.4935 111.735 18.9756 112.455 18.9756C112.873 18.9756 113.164 18.8034 113.384 18.6427C113.466 18.5739 113.547 18.505 113.64 18.4361C114.058 18.0689 114.545 17.6557 115.741 17.6557C117.506 17.6557 118.4 18.4935 118.4 20.1463V20.571H116.821C112.49 20.571 110.284 22.0287 110.284 24.9096C110.284 27.4921 112.177 29.2138 115.01 29.2138C116.647 29.2138 117.994 28.6169 118.853 27.5265C119.376 28.5595 120.305 29.076 121.617 29.076C122.418 29.076 123.022 28.5366 123.022 27.825C123.033 27.1248 122.429 26.5854 121.628 26.5854ZM115.114 26.7231C113.744 26.7231 112.92 26.0574 112.92 24.944C112.92 23.2224 114.94 23.0846 116.833 23.0846H118.412V23.1306C118.412 25.2769 117.088 26.7231 115.114 26.7231Z" fill="#008DFF"/>
</svg>
