<svg width="32" height="32" viewBox="0 0 32 32" fill="none" xmlns="http://www.w3.org/2000/svg">
<path fill-rule="evenodd" clip-rule="evenodd" d="M16 5C9.92487 5 5 9.92487 5 16C5 18.805 6.04989 21.3648 7.77815 23.3078C8.62482 22.0848 9.73613 21.0628 11.034 20.3202C11.8063 19.8783 12.6305 19.5436 13.4839 19.3217C11.9983 18.4549 11 16.844 11 15C11 12.2386 13.2386 10 16 10C18.7614 10 21 12.2386 21 15C21 16.844 20.0017 18.4549 18.5161 19.3217C19.4982 19.577 20.4401 19.9815 21.3078 20.5249C22.4619 21.2477 23.452 22.1959 24.2218 23.3078C25.9501 21.3648 27 18.805 27 16C27 9.92487 22.0751 5 16 5ZM22.7415 24.6927C22.105 23.6965 21.2537 22.8509 20.2463 22.2199C19.0193 21.4515 17.6068 21.0304 16.1594 21.0016C14.712 20.9727 13.2838 21.3372 12.0272 22.0561C10.9029 22.6994 9.95353 23.6049 9.25852 24.6927C11.1206 26.1389 13.4597 27 16 27C18.5403 27 20.8794 26.1389 22.7415 24.6927ZM3 16C3 8.8203 8.8203 3 16 3C23.1797 3 29 8.8203 29 16C29 23.1797 23.1797 29 16 29C8.8203 29 3 23.1797 3 16ZM16 12C14.3431 12 13 13.3431 13 15C13 16.6569 14.3431 18 16 18C17.6569 18 19 16.6569 19 15C19 13.3431 17.6569 12 16 12Z" fill="#38376B"/>
</svg>
