<svg width="32" height="32" viewBox="0 0 32 32" fill="none" xmlns="http://www.w3.org/2000/svg">
<path d="M2.82747 8.90711C2.50368 8.6265 2 8.85649 2 9.28495V24C2 25.1046 2.89543 26 4 26L28 26C29.1046 26 30 25.1046 30 24V9.28495C30 8.85649 29.4963 8.6265 29.1725 8.90711L17.3099 19.1881C16.5581 19.8396 15.4419 19.8396 14.6901 19.1881L2.82747 8.90711Z" fill="#008DFF"/>
<path d="M28.4847 6.87818C28.835 6.57523 28.6226 6.00001 28.1595 6.00001C22.0382 6.00001 8.19312 6 3.83773 6C3.37464 6 3.16504 6.57522 3.51529 6.87817L16 17.6767L28.4847 6.87818Z" fill="#008DFF"/>
</svg>
