<svg width="32" height="32" viewBox="0 0 32 32" fill="none" xmlns="http://www.w3.org/2000/svg">
<path fill-rule="evenodd" clip-rule="evenodd" d="M13 2C12.4477 2 12 2.44772 12 3V4.68311C11.5967 4.82567 11.2033 4.98915 10.8211 5.17223L9.46549 3.79778C9.27758 3.60726 9.02114 3.5 8.75354 3.5C8.48593 3.5 8.2295 3.60726 8.04158 3.79778L3.78804 8.11028C3.40399 8.49966 3.40399 9.12534 3.78804 9.51472L5.14113 10.8866C4.97059 11.2481 4.81755 11.6197 4.68311 12H3C2.44772 12 2 12.4477 2 13V19C2 19.5523 2.44772 20 3 20H4.68311C4.84421 20.4558 5.03201 20.8988 5.24463 21.3273L4.10252 22.4853C3.71846 22.8747 3.71846 23.5003 4.10252 23.8897L8.35605 28.2022C8.54397 28.3927 8.80041 28.5 9.06801 28.5C9.33561 28.5 9.59205 28.3927 9.77997 28.2022L11.0365 26.9283C11.3506 27.0712 11.672 27.201 12 27.3169V29C12 29.5523 12.4477 30 13 30H19C19.5523 30 20 29.5523 20 29V27.3169C20.328 27.201 20.6494 27.0712 20.9635 26.9283L22.22 28.2022C22.4079 28.3927 22.6644 28.5 22.932 28.5C23.1996 28.5 23.456 28.3927 23.6439 28.2022L27.8975 23.8897C28.2815 23.5003 28.2815 22.8747 27.8975 22.4853L26.7554 21.3273C26.968 20.8988 27.1558 20.4558 27.3169 20H29C29.5523 20 30 19.5523 30 19V13C30 12.4477 29.5523 12 29 12H27.3169C27.1825 11.6197 27.0294 11.2481 26.8589 10.8866L28.212 9.51473C28.596 9.12534 28.596 8.49966 28.212 8.11028L23.9584 3.79778C23.7705 3.60726 23.5141 3.5 23.2465 3.5C22.9789 3.5 22.7224 3.60726 22.5345 3.79778L21.1789 5.17223C20.7967 4.98915 20.4033 4.82567 20 4.68311V3C20 2.44772 19.5523 2 19 2H13ZM14 5.41406V4H18V5.41406C18 5.86153 18.2973 6.25453 18.7278 6.37632C19.4869 6.59101 20.2094 6.89321 20.8839 7.27151C21.2769 7.4919 21.7687 7.42231 22.0851 7.10155L23.2465 5.92405L26.0954 8.8125L24.9283 9.99582C24.6174 10.311 24.5508 10.793 24.7645 11.1807C25.126 11.8367 25.4158 12.5373 25.6237 13.2722C25.7455 13.7027 26.1385 14 26.5859 14H28V18H26.5859C26.1385 18 25.7455 18.2973 25.6237 18.7278C25.3963 19.5319 25.0706 20.2951 24.6603 21.0035C24.4345 21.3934 24.4974 21.8861 24.8137 22.2069L25.7809 23.1875L22.932 26.0759L21.8808 25.0102C21.5699 24.695 21.0889 24.6217 20.6983 24.83C20.0774 25.1612 19.4177 25.4286 18.7278 25.6237C18.2973 25.7455 18 26.1385 18 26.5859V28H14V26.5859C14 26.1385 13.7027 25.7455 13.2722 25.6237C12.5823 25.4286 11.9226 25.1612 11.3017 24.83C10.9111 24.6217 10.4301 24.695 10.1192 25.0102L9.06801 26.076L6.21905 23.1875L7.18626 22.2069C7.50264 21.8861 7.56545 21.3934 7.33966 21.0035C6.92938 20.2951 6.60375 19.5319 6.37632 18.7278C6.25453 18.2973 5.86153 18 5.41406 18H4V14H5.41407C5.86153 14 6.25453 13.7027 6.37632 13.2722C6.58416 12.5373 6.87403 11.8367 7.23555 11.1807C7.44923 10.793 7.38258 10.311 7.07172 9.99582L5.90458 8.8125L8.75354 5.92405L9.91493 7.10155C10.2313 7.42231 10.7231 7.4919 11.1161 7.27151C11.7906 6.89321 12.5131 6.59101 13.2722 6.37632C13.7027 6.25453 14 5.86153 14 5.41406ZM13 16C13 14.3431 14.3431 13 16 13C17.6569 13 19 14.3431 19 16C19 17.6569 17.6569 19 16 19C14.3431 19 13 17.6569 13 16ZM16 11C13.2386 11 11 13.2386 11 16C11 18.7614 13.2386 21 16 21C18.7614 21 21 18.7614 21 16C21 13.2386 18.7614 11 16 11Z" fill="#38376B"/>
</svg>
