<svg width="32" height="32" viewBox="0 0 32 32" fill="none" xmlns="http://www.w3.org/2000/svg">
<path fill-rule="evenodd" clip-rule="evenodd" d="M10.9333 4C8.97435 4 7.15749 4.71507 5.8666 6.03123C4.5669 7.35638 3.85831 9.23274 4.02505 11.4274C4.16818 13.3113 5.0039 15.2759 6.09002 17.1108C7.18464 18.9601 8.58279 20.7588 9.94618 22.3254C11.3122 23.895 12.6594 25.2501 13.6642 26.2122C14.1671 26.6937 14.5856 27.0781 14.8794 27.343C15.0264 27.4755 15.1422 27.5782 15.222 27.6483C15.2619 27.6834 15.2928 27.7104 15.3141 27.7288L15.3386 27.7501L15.3479 27.7581C15.7227 28.0802 16.277 28.0805 16.6518 27.7584L16.6511 27.7576L16.6528 27.7576L16.6614 27.7501L16.686 27.7288C16.7072 27.7104 16.7381 27.6834 16.778 27.6483C16.8578 27.5782 16.9737 27.4755 17.1206 27.343C17.4145 27.0781 17.833 26.6937 18.3359 26.2122C19.3406 25.2501 20.6879 23.895 22.0539 22.3254C23.4173 20.7588 24.8154 18.9601 25.9101 17.1108C26.9962 15.2759 27.8319 13.3113 27.975 11.4274C28.1417 9.23274 27.4332 7.35638 26.1335 6.03123C24.8426 4.71507 23.0257 4 21.0667 4C18.3946 4 16.8519 5.35342 16 6.59906C15.1482 5.35342 13.6054 4 10.9333 4ZM16.9527 24.7676C16.5807 25.1238 16.2572 25.4242 16 25.6592C15.7428 25.4242 15.4194 25.1238 15.0474 24.7676C14.0727 23.8343 12.7702 22.5239 11.4549 21.0125C10.1369 19.4981 8.8222 17.8002 7.81111 16.0921C6.79153 14.3696 6.12873 12.7161 6.0193 11.2758C5.89341 9.61886 6.42374 8.31943 7.29446 7.43167C8.17398 6.53493 9.45901 6 10.9333 6C13.6214 6 14.6026 7.94759 14.9231 8.85438C15.1456 9.48411 15.7463 9.59749 16 9.59749C16.2538 9.59749 16.8544 9.48412 17.077 8.85438C17.3975 7.94759 18.3787 6 21.0667 6C22.5411 6 23.8261 6.53493 24.7056 7.43167C25.5763 8.31943 26.1066 9.61886 25.9808 11.2759C25.8713 12.7161 25.2085 14.3696 24.189 16.0921C23.1779 17.8002 21.8631 19.4981 20.5452 21.0125C19.2298 22.5239 17.9274 23.8343 16.9527 24.7676Z" fill="#616575"/>
</svg>
